<?xml version="1.0" encoding="utf-8"?>
<!-- Generator: Adobe Illustrator 16.0.0, SVG Export Plug-In . SVG Version: 6.00 Build 0)  -->
<!DOCTYPE svg PUBLIC "-//W3C//DTD SVG 1.1 Tiny//EN" "http://www.w3.org/Graphics/SVG/1.1/DTD/svg11-tiny.dtd">
<svg version="1.1" baseProfile="tiny"
	 id="svg2" xmlns:svg="http://www.w3.org/2000/svg" xmlns:sodipodi="http://sodipodi.sourceforge.net/DTD/sodipodi-0.dtd" xmlns:rdf="http://www.w3.org/1999/02/22-rdf-syntax-ns#" xmlns:inkscape="http://www.inkscape.org/namespaces/inkscape" xmlns:dc="http://purl.org/dc/elements/1.1/" xmlns:cc="http://creativecommons.org/ns#"
	 xmlns="http://www.w3.org/2000/svg" xmlns:xlink="http://www.w3.org/1999/xlink" x="0px" y="0px" width="500px" height="500px"
	 viewBox="0 0 500 500" xml:space="preserve">
<path fill="#012832" d="M498.475,249.999c0,137.329-111.331,248.663-248.663,248.663c-137.333,0-248.661-111.334-248.661-248.663
	c0-137.332,111.33-248.662,248.661-248.662C387.143,1.337,498.475,112.667,498.475,249.999z"/>
<path fill="#FFFFFF" d="M264.788,134.119c36.392,1.562,71.733,10.637,101.94,34.593c16.323,12.945,28.91,28.89,34.051,49.521
	c7.029,28.216-0.52,52.969-19.313,74.561c-16.813,19.316-38.347,31.448-62.314,39.419c-25.075,8.337-50.878,11.217-77.2,8.478
	c-5.167-0.536-9.03,0.82-13.093,4.176c-24.943,20.617-53.694,32.97-85.6,37.83c-2.592,0.393-6.867-1.427-8.114-3.543
	c-1.242-2.108-0.606-6.5,0.89-8.797c2.985-4.584,7.031-8.503,10.802-12.544c9.134-9.792,15.207-21.26,19.46-33.881
	c1.315-3.905,0.422-5.759-3.044-7.75c-14.761-8.479-26.991-19.847-36.483-33.969c-20.434-30.406-17.958-67.654,5.607-96.15
	c19.194-23.209,44.424-36.244,72.602-44.564C224.025,135.876,243.582,133.948,264.788,134.119z"/>
</svg>
