<?xml version="1.0" encoding="utf-8"?>
<!-- Generator: Adobe Illustrator 16.0.0, SVG Export Plug-In . SVG Version: 6.00 Build 0)  -->
<!DOCTYPE svg PUBLIC "-//W3C//DTD SVG 1.1//EN" "http://www.w3.org/Graphics/SVG/1.1/DTD/svg11.dtd">
<svg version="1.1" id="Capa_1" xmlns="http://www.w3.org/2000/svg" xmlns:xlink="http://www.w3.org/1999/xlink" x="0px" y="0px"
	 width="400px" height="400px" viewBox="0 0 400 400" enable-background="new 0 0 400 400" xml:space="preserve">
<path fill="#64798A" d="M308.422,0H91.578C82.212,0,74.62,7.593,74.62,16.958v366.084c0,9.365,7.593,16.958,16.958,16.958H308.42
	c9.366,0,16.959-7.593,16.959-16.958V16.958C325.379,7.593,317.786,0,308.422,0z"/>
<rect x="86.861" y="40" fill="#DFEDEF" width="226.3" height="298.939"/>
<rect x="86.861" y="319.695" fill="#B3DCE2" width="226.3" height="19.265"/>
<g>
	<path fill="#2F4859" d="M243.173,16.055H181.3c-3.112,0-5.638,2.524-5.638,5.638c0,3.114,2.523,5.638,5.638,5.638h61.873
		c3.112,0,5.638-2.524,5.638-5.638C248.811,18.579,246.286,16.055,243.173,16.055z"/>
	<circle fill="#2F4859" cx="156.8" cy="21.69" r="5.635"/>
</g>
<g>
	<path fill="#EBF0F3" d="M200,388.857c-10.811,0-19.604-8.793-19.604-19.599c0-10.81,8.793-19.603,19.604-19.603
		c10.81,0,19.603,8.793,19.603,19.603C219.603,380.066,210.81,388.857,200,388.857z M200,360.566c-4.794,0-8.693,3.898-8.693,8.692
		c0,4.79,3.899,8.688,8.693,8.688s8.692-3.898,8.692-8.688C208.694,364.466,204.794,360.566,200,360.566z"/>
	<rect x="269.31" y="363.8" fill="#EBF0F3" width="19.445" height="10.91"/>
	<rect x="111.25" y="363.8" fill="#EBF0F3" width="19.444" height="10.91"/>
</g>
</svg>
