<?xml version="1.0" encoding="utf-8"?>
<!-- Generator: Adobe Illustrator 16.0.0, SVG Export Plug-In . SVG Version: 6.00 Build 0)  -->
<!DOCTYPE svg PUBLIC "-//W3C//DTD SVG 1.1//EN" "http://www.w3.org/Graphics/SVG/1.1/DTD/svg11.dtd">
<svg version="1.1" id="Layer_1" xmlns="http://www.w3.org/2000/svg" xmlns:xlink="http://www.w3.org/1999/xlink" x="0px" y="0px"
	 width="512px" height="512px" viewBox="0 0 512 512" enable-background="new 0 0 512 512" xml:space="preserve">
<g id="_x35_4_x2C__Computer_x2C__Error_x2C__Pc_x2C__Screen_x2C__Data_Error">
	<g>
		<g>
			<path fill="#3F4751" d="M226.461,457.846c-2.718,0-4.923-2.204-4.923-4.923v-39.386c0-2.72,2.205-4.924,4.923-4.924
				c2.719,0,4.924,2.204,4.924,4.924v39.386C231.385,455.642,229.18,457.846,226.461,457.846z"/>
			<path fill="#3F4751" d="M285.538,457.846c-2.721,0-4.924-2.204-4.924-4.923v-39.386c0-2.72,2.203-4.924,4.924-4.924
				c2.72,0,4.923,2.204,4.923,4.924v39.386C290.461,455.642,288.258,457.846,285.538,457.846z"/>
			<path fill="#757D8C" d="M447.34,98.462c-14.012,0-365.479,0-382.681,0c-13.963,0-25.274,11.313-25.274,25.275v264.526
				c0,13.962,11.313,25.274,25.274,25.274H447.34c13.962,0,25.274-11.313,25.274-25.274c0-16.642,0-254.557,0-264.526
				C472.615,109.775,461.302,98.462,447.34,98.462z"/>
			<path fill="#D0DCE7" d="M443.075,354.462c-0.106,0-333.6,0-374.152,0c0-9.066,0-215.679,0-226.462h374.152V354.462z"/>
			<path fill="#D94556" d="M403.692,29.539c13.588,0,24.616,11.019,24.616,24.615s-11.028,24.615-24.616,24.615
				c-13.598,0-24.615-11.019-24.615-24.615S390.094,29.539,403.692,29.539z"/>
			<path fill="#D94556" d="M64,44.307c8.151,0,14.769,6.616,14.769,14.77S72.153,73.846,64,73.846
				c-8.163,0-14.771-6.617-14.771-14.771S55.837,44.307,64,44.307z"/>
			<path fill="#D94556" d="M83.693,433.231c10.87,0,19.692,8.813,19.692,19.692s-8.822,19.691-19.692,19.691
				c-10.88,0-19.691-8.813-19.691-19.691S72.813,433.231,83.693,433.231z"/>
			<path fill="#33383F" d="M339.692,452.925c8.153,0,14.771,6.615,14.771,14.769c0,4.077-1.654,7.77-4.323,10.438
				c-2.677,2.679-6.369,4.332-10.446,4.332H172.308c-8.163,0-14.77-6.616-14.77-14.771c0-4.076,1.653-7.769,4.321-10.437
				c2.68-2.68,6.361-4.332,10.447-4.332h54.153h59.077H339.692z"/>
			<g>
				<circle fill="#3256C1" cx="460.308" cy="71.385" r="7.385"/>
				<circle fill="#3256C1" cx="460.308" cy="465.231" r="7.385"/>
				<circle fill="#3256C1" cx="381.537" cy="435.693" r="7.384"/>
				<path fill="#3256C1" d="M349.469,40.851c0.553,4.037-2.274,7.759-6.321,8.311c-4.036,0.552-7.759-2.273-8.309-6.321
					c-0.554-4.036,2.273-7.759,6.312-8.311C345.197,33.979,348.918,36.805,349.469,40.851z"/>
				<path fill="#3256C1" d="M275.623,70.39c0.553,4.037-2.284,7.759-6.321,8.31c-4.037,0.552-7.759-2.273-8.309-6.321
					c-0.554-4.035,2.273-7.759,6.311-8.31C271.35,63.517,275.072,66.344,275.623,70.39z"/>
				<path fill="#3256C1" d="M152.546,40.851c0.552,4.037-2.274,7.759-6.321,8.311c-4.036,0.552-7.759-2.273-8.31-6.321
					c-0.553-4.036,2.273-7.759,6.32-8.311C148.274,33.979,151.995,36.805,152.546,40.851z"/>
				<circle fill="#3256C1" cx="140.308" cy="435.693" r="7.384"/>
			</g>
			<g>
				<path fill="#A0B5C5" d="M108.308,290.462c0-2.72-2.205-4.923-4.923-4.923H68.923v9.847h34.462
					C106.103,295.385,108.308,293.181,108.308,290.462z"/>
				<path fill="#A0B5C5" d="M108.308,315.077c0-2.72-2.205-4.923-4.923-4.923H68.923V320h34.462
					C106.103,320,108.308,317.797,108.308,315.077z"/>
				<path fill="#A0B5C5" d="M403.692,315.077c0,2.72,2.204,4.923,4.924,4.923h34.461c0-3.133,0-6.421,0-9.846h-34.461
					C405.896,310.154,403.692,312.357,403.692,315.077z"/>
				<path fill="#A0B5C5" d="M108.308,265.846c0-2.721-2.205-4.925-4.923-4.925H68.923v9.848h34.462
					C106.103,270.769,108.308,268.565,108.308,265.846z"/>
				<path fill="#A0B5C5" d="M403.692,290.462c0,2.721,2.204,4.924,4.924,4.924h34.461c0-3.212,0-6.499,0-9.847h-34.461
					C405.896,285.539,403.692,287.742,403.692,290.462z"/>
				<path fill="#A0B5C5" d="M403.692,241.231c0,2.718,2.204,4.923,4.924,4.923h34.461c0-3.281,0-6.565,0-9.847h-34.461
					C405.896,236.307,403.692,238.512,403.692,241.231z"/>
				<path fill="#A0B5C5" d="M403.692,265.846c0,2.719,2.204,4.923,4.924,4.923h34.461c0-3.251,0-6.537,0-9.848h-34.461
					C405.896,260.923,403.692,263.127,403.692,265.846z"/>
				<path fill="#A0B5C5" d="M108.308,241.231c0-2.719-2.205-4.924-4.923-4.924H68.923v9.847h34.462
					C106.103,246.154,108.308,243.949,108.308,241.231z"/>
			</g>
		</g>
	</g>
</g>
<path fill="#D94556" d="M323.155,241.307c0,38.45-31.163,69.614-69.614,69.614s-69.615-31.164-69.615-69.614
	c0-38.29,31.006-69.615,69.615-69.615C292.212,171.692,323.155,203.076,323.155,241.307z"/>
<g>
	<g>
		<path fill="#FFFFFF" d="M253.481,198.246c-4.774,0-8.5,2.562-8.5,7.103c0,13.856,1.63,33.767,1.63,47.624
			c0,3.609,3.145,5.122,6.871,5.122c2.794,0,6.753-1.513,6.753-5.122c0-13.857,1.63-33.768,1.63-47.624
			C261.865,200.808,258.023,198.246,253.481,198.246z"/>
	</g>
</g>
<g>
	<g>
		<path fill="#FFFFFF" d="M253.598,266.13c-5.123,0-8.966,4.076-8.966,8.967c0,4.773,3.842,8.965,8.966,8.965
			c4.774,0,8.85-4.191,8.85-8.965C262.448,270.206,258.371,266.13,253.598,266.13z"/>
	</g>
</g>
</svg>
