<?xml version="1.0" encoding="utf-8"?>
<!-- Generator: Adobe Illustrator 16.0.0, SVG Export Plug-In . SVG Version: 6.00 Build 0)  -->
<!DOCTYPE svg PUBLIC "-//W3C//DTD SVG 1.1 Tiny//EN" "http://www.w3.org/Graphics/SVG/1.1/DTD/svg11-tiny.dtd">
<svg version="1.1" baseProfile="tiny"
	 id="svg2" xmlns:svg="http://www.w3.org/2000/svg" xmlns:sodipodi="http://sodipodi.sourceforge.net/DTD/sodipodi-0.dtd" xmlns:rdf="http://www.w3.org/1999/02/22-rdf-syntax-ns#" xmlns:inkscape="http://www.inkscape.org/namespaces/inkscape" xmlns:dc="http://purl.org/dc/elements/1.1/" xmlns:cc="http://creativecommons.org/ns#"
	 xmlns="http://www.w3.org/2000/svg" xmlns:xlink="http://www.w3.org/1999/xlink" x="0px" y="0px" width="500px" height="500px"
	 viewBox="0 0 500 500" xml:space="preserve">
<g id="layer1" transform="translate(0,-552.36218)">
	<path id="rect2990-1" fill="#0050AF" d="M250,553.362L250,553.362c137.515,0,249,111.48,249,249l0,0c0,137.519-111.485,249-249,249
		l0,0c-137.52,0-249-111.481-249-249l0,0C1,664.842,112.48,553.362,250,553.362z"/>
	<g id="layer1-9" transform="translate(-549.00515,80.294372)">
	</g>
	<g id="layer1-6" transform="translate(-575.71429,39.999999)">
	</g>
	<g id="layer1-1" transform="translate(-162.09821,1.8080339)">
		<g id="形状_1_3_" transform="matrix(1.21711,0,0,1.21711,112.82456,368.85377)">
			<g id="形状_1">
				<g id="g2991">
				</g>
			</g>
		</g>
		<g id="形状_1_2_" transform="matrix(1.21711,0,0,1.21711,-175.03531,575.68723)">
			<g id="形状_1_1_">
				<g id="g2997">
				</g>
			</g>
		</g>
	</g>
</g>
<g>
	<path fill="#FFFFFF" d="M371.425,287.342c0,4.575,0,8.864,0,13.156c-0.004,14.309,0.083,28.622-0.031,42.932
		c-0.145,17.674-12.454,32.901-29.676,36.773c-2.73,0.614-5.587,0.957-8.384,0.961c-63.792,0.054-127.585,0.065-191.378,0.04
		c-18.917-0.008-35.59-14.776-37.334-33.483c-0.719-7.701-0.416-15.507-0.419-23.266c-0.025-54.101,0.017-108.203-0.021-162.301
		c-0.015-19.807,14.535-36.204,34.277-38.2c4.325-0.438,8.712-0.319,13.071-0.32c60.325-0.012,120.65-0.011,180.978,0.004
		c19.391,0.003,34.784,12.765,38.348,31.774c0.318,1.693,0.473,3.432,0.546,5.157c0.091,2.165,0.021,4.34,0.021,6.708
		c-6.345,0.762-12.557,1.51-19.111,2.296c0-2.635-0.021-5.042,0.005-7.449c0.051-4.898-1.488-9.222-4.739-12.872
		c-3.834-4.303-8.647-6.471-14.457-6.468c-24.897,0.004-49.794-0.031-74.697-0.037c-33.437-0.005-66.872,0.002-100.306,0.006
		c-5.199,0-10.397,0.005-15.594,0.031c-10.83,0.055-19.136,8.293-19.198,19.134c-0.059,10.27-0.017,20.538-0.017,30.805
		c-0.001,38.634,0,77.268,0,115.904c0,11.294-0.049,22.588,0.01,33.885c0.057,11.451,8.303,19.528,19.778,19.528
		c59.365,0.003,118.729,0.016,178.092,0.016c4.298,0,8.602,0.036,12.9-0.057c9.522-0.202,17.87-8.06,18.098-17.572
		c0.285-11.991,0.091-24.001,0.096-36.002c0.006-5.645,0.021-11.294-0.039-16.942c-0.016-1.313,0.242-1.89,1.739-2.04
		C359.708,288.857,365.422,288.08,371.425,287.342z"/>
	<path fill="#FFFFFF" d="M353.346,204.931c11.723,11.726,23.287,23.287,34.979,34.985c-0.3,0.349-0.636,0.785-1.02,1.173
		c-26.633,26.624-53.271,53.239-79.884,79.88c-0.933,0.934-1.867,1.333-3.199,1.322c-10.457-0.06-20.915-0.05-31.373-0.06
		c-0.69-0.001-1.382,0-2.324,0c0-0.878,0-1.56,0-2.241c0.019-10.201,0.052-20.4,0.018-30.603c-0.005-1.319,0.354-2.264,1.295-3.204
		c26.842-26.771,53.655-53.57,80.479-80.359C352.623,205.514,352.976,205.25,353.346,204.931z M301.152,272.61
		c-3.206,3.254-6.145,6.693-9.555,9.581c-3.946,3.332-2.831,7.812-3.875,11.97c3.802,0,7.229,0,10.797,0
		c-0.255,3.631-0.499,7.115-0.764,10.868c2.993-0.229,5.737-0.318,8.443-0.702c1.095-0.156,2.309-0.731,3.11-1.495
		c3.438-3.27,6.748-6.676,10.095-10.045c0.34-0.341,0.604-0.758,0.81-1.017C313.857,285.385,307.628,279.121,301.152,272.61z
		 M357.249,223.386c-0.806-0.968-1.316-2.007-2.149-2.491c-1.323-0.765-2.542-0.146-3.601,0.913
		c-14.327,14.344-28.673,28.67-43.007,43.008c-1.615,1.614-1.752,3.271-0.463,4.534c1.308,1.275,2.879,1.109,4.55-0.546
		c2.873-2.843,5.722-5.708,8.581-8.563c11.343-11.341,22.689-22.674,34.009-34.033C355.904,225.469,356.424,224.518,357.249,223.386
		z"/>
	<path fill="#FFFFFF" d="M239.736,200.043c-27.328-0.001-54.659-0.007-81.989,0.008c-2.816,0-5.5-0.281-7.752-2.229
		c-3.075-2.664-4.236-6.698-2.947-10.446c1.3-3.777,4.85-6.397,8.944-6.412c10.906-0.042,21.814-0.018,32.719-0.018
		c43.818,0,87.635-0.005,131.455,0.017c1.913,0,3.893-0.045,5.719,0.414c4.499,1.128,7.376,5.513,6.882,10.055
		c-0.501,4.659-4.064,8.276-8.734,8.483c-4.608,0.206-9.232,0.124-13.853,0.125C286.699,200.049,263.221,200.045,239.736,200.043z"
		/>
	<path fill="#FFFFFF" d="M217.306,237.998c20.208,0,40.417-0.016,60.622,0.008c6.514,0.007,11.047,5.2,9.97,11.304
		c-0.825,4.694-4.892,7.864-10.188,7.869c-16.42,0.018-32.845,0.005-49.267,0.005c-23.735,0-47.472-0.002-71.204,0
		c-5.084,0-8.835-2.409-10.22-6.587c-2.09-6.311,2.562-12.555,9.473-12.583c11.546-0.05,23.094-0.022,34.642-0.026
		c8.725-0.001,17.448,0,26.172,0C217.306,237.99,217.306,237.993,217.306,237.998z"/>
	<path fill="#FFFFFF" d="M185.544,314.309c-9.875,0-19.752,0.101-29.626-0.035c-7.296-0.098-11.679-7.727-8.175-14.05
		c1.871-3.376,4.872-4.943,8.733-4.943c13.402,0.012,26.806-0.003,40.209-0.003c6.282,0,12.568-0.056,18.851,0.047
		c4.788,0.079,8.683,3.815,9.144,8.517c0.463,4.747-2.59,9.12-7.225,10.2c-1.108,0.258-2.289,0.268-3.436,0.272
		c-9.491,0.019-18.982,0.012-28.474,0.012C185.544,314.317,185.544,314.314,185.544,314.309z"/>
	<path fill="#FFFFFF" d="M395.94,231.375c-11.253-11.283-22.736-22.8-34.532-34.63c3.253-3.157,6.695-6.49,10.127-9.833
		c1.147-1.12,2.238-2.3,3.411-3.392c3.667-3.406,8.51-3.433,12.072,0.085c7.622,7.526,15.199,15.098,22.729,22.714
		c3.065,3.095,3.673,7.801,0.838,10.838C405.923,222.155,400.788,226.716,395.94,231.375z"/>
</g>
</svg>
