<?xml version="1.0" encoding="iso-8859-1"?>
<!-- Generator: Adobe Illustrator 19.0.0, SVG Export Plug-In . SVG Version: 6.00 Build 0)  -->
<svg version="1.1" id="Capa_1" xmlns="http://www.w3.org/2000/svg" xmlns:xlink="http://www.w3.org/1999/xlink" x="0px" y="0px"
	 viewBox="0 0 512 512" style="enable-background:new 0 0 512 512;" xml:space="preserve">
<circle style="fill:#FFD93B;" cx="256" cy="256" r="256"/>
<path style="fill:#F4C534;" d="M512,256c0,141.44-114.64,256-256,256c-80.48,0-152.32-37.12-199.28-95.28
	c43.92,35.52,99.84,56.72,160.72,56.72c141.36,0,256-114.56,256-256c0-60.88-21.2-116.8-56.72-160.72
	C474.8,103.68,512,175.52,512,256z"/>
<g>
	<path style="fill:#3E4347;" d="M419.328,127.664c0,0-56.256-84.896-136.416-57.072C282.896,70.592,349.12-19.104,419.328,127.664z"
		/>
	<path style="fill:#3E4347;" d="M93.584,129.616c0,0,53.616-86.576,134.608-61.248C228.192,68.368,159.248-19.248,93.584,129.616z"
		/>
</g>
<ellipse transform="matrix(-0.9606 -0.2779 0.2779 -0.9606 610.9869 502.6961)" style="fill:#F4C534;" cx="341.12" cy="208.046" rx="70.111" ry="70.159"/>
<path style="fill:#FFFFFF;" d="M283.392,191.312c-7.088,32.576,13.008,66.512,44.96,75.76s63.568-9.728,70.656-42.304
	s-13.024-66.416-44.976-75.664C322.08,139.856,290.496,158.736,283.392,191.312z"/>
<ellipse transform="matrix(-0.2779 -0.9606 0.9606 -0.2779 18.417 429.8511)" style="fill:#F4C534;" cx="170.77" cy="208.003" rx="70.159" ry="70.111"/>
<g>
	<path style="fill:#FFFFFF;" d="M228.608,191.312c7.088,32.576-13.008,66.512-44.96,75.76s-63.568-9.728-70.656-42.304
		s13.024-66.416,44.976-75.664C189.92,139.856,221.504,158.736,228.608,191.312z"/>
	<path style="fill:#FFFFFF;" d="M170.928,422.976c2.48-2.336,5.008-4.624,7.584-6.88c-0.192,4.496-0.352,8.976-0.448,13.456
		c3.776-0.928,7.568-1.792,11.376-2.56c-0.88,3.36-1.712,6.736-2.496,10.112c3.824-3.216,7.776-6.336,11.824-9.392
		c-2.32,4.624-4.528,9.28-6.592,13.936c2.88,0.16,5.744,0.384,8.608,0.624c0,0.048-0.352,3.296-0.704,6.048
		c2.432-3.184,5.312-6.624,5.36-6.896c0.112,0.096-0.08,1.824-0.288,4.016c37.984-37.168,90.848-66.912,154.464-80.288
		c2.112-3.152,4.256-6.288,6.432-9.424c-4.624-1.328-9.28-2.576-13.952-3.744c2.672-2.528,5.376-5.04,8.144-7.52
		c-6.272,0.656-12.464,1.488-18.592,2.448c4.784-3.168,9.68-6.24,14.688-9.216c-3.472-1.68-6.992-3.312-10.528-4.912
		c0-0.048,2.016-2.848,3.824-5.072c-4.816,1.632-10.048,3.52-10.304,3.584c-0.112-0.144,4.64-6.88,6.736-10.064
		c-1.632,0.128-3.248,0.272-4.88,0.432c0.432-2.496,0.848-4.976,1.28-7.472c-76.048,18.16-138.224,56.912-181.184,104.288
		c3.072-1.872,6.176-3.696,9.328-5.472C170.704,416.336,170.8,419.664,170.928,422.976z"/>
	<path style="fill:#FFFFFF;" d="M164.352,329.84c3.984,0.896,7.92,1.824,11.824,2.832c-5.968,2.032-11.872,4.176-17.728,6.464
		c2.752,2.64,5.456,5.328,8.128,8.016c-4.608,1.072-9.216,2.224-13.808,3.472c5.824,1.392,11.552,2.896,17.2,4.528
		c-6.736,0.624-13.472,1.424-20.24,2.4c1.264,2.496,2.512,4.992,3.76,7.488c0-0.016-4.128,1.712-7.536,3.008
		c5.152,0.096,10.752,0.448,11.072,0.304c-0.064,0.128-2.208,1.056-4.832,2.16c64.864,9.024,120.144,35.392,161.12,70.304
		c3.856,0.016,7.712,0.112,11.6,0.272c-0.784-3.456-1.6-6.896-2.48-10.336c3.6,0.784,7.2,1.632,10.784,2.528
		c-3.28-3.776-6.672-7.488-10.192-11.152c5.168,2,10.288,4.16,15.312,6.432c0.288-2.768,0.56-5.536,0.816-8.288
		c-0.016,0.032,3.744,0.464,6.784,1.024c-3.552-2.656-7.568-5.52-7.728-5.696c0.128-0.176,9.008,1.088,13.248,1.68
		c-0.752-1.024-1.504-2.048-2.272-3.056c2.832-0.336,5.696-0.64,8.576-0.912c-46.928-45.408-112.48-80.512-190.512-93.632
		c3.488,1.648,6.928,3.344,10.32,5.088C173.12,326.384,168.72,328.08,164.352,329.84z"/>
</g>
<ellipse transform="matrix(-0.7071 -0.7071 0.7071 -0.7071 424.8257 600.569)" style="fill:#3E4347;" cx="336.795" cy="212.3" rx="31.936" ry="31.984"/>
<ellipse transform="matrix(-0.7071 -0.7071 0.7071 -0.7071 412.0432 569.8795)" style="fill:#5A5F63;" cx="324.047" cy="199.603" rx="6.256" ry="9.936"/>
<ellipse transform="matrix(-0.7071 -0.7071 0.7071 -0.7071 148.9731 486.3392)" style="fill:#3E4347;" cx="175.211" cy="212.316" rx="31.968" ry="31.936"/>
<ellipse transform="matrix(-0.7071 -0.7071 0.7071 -0.7071 179.7285 473.6386)" style="fill:#5A5F63;" cx="187.958" cy="199.596" rx="9.936" ry="6.256"/>
<g>
</g>
<g>
</g>
<g>
</g>
<g>
</g>
<g>
</g>
<g>
</g>
<g>
</g>
<g>
</g>
<g>
</g>
<g>
</g>
<g>
</g>
<g>
</g>
<g>
</g>
<g>
</g>
<g>
</g>
</svg>
