<?xml version="1.0" encoding="utf-8"?>
<!-- Generator: Adobe Illustrator 16.0.0, SVG Export Plug-In . SVG Version: 6.00 Build 0)  -->
<!DOCTYPE svg PUBLIC "-//W3C//DTD SVG 1.1//EN" "http://www.w3.org/Graphics/SVG/1.1/DTD/svg11.dtd">
<svg version="1.1" id="Layer_1" xmlns="http://www.w3.org/2000/svg" xmlns:xlink="http://www.w3.org/1999/xlink" x="0px" y="0px"
	 width="290px" height="269.268px" viewBox="0 0 290 269.268" enable-background="new 0 0 290 269.268" xml:space="preserve">
<g>
	<path fill="#9E9E9E" d="M290.314,103.265L188.846,90.066L145.314-0.307l-43.542,90.373L0.314,103.265l74.594,67.604L55.66,268.96
		l89.654-48.166l89.674,48.166l-19.278-98.09L290.314,103.265z"/>
</g>
<g>
	<path fill="#B5B5B5" d="M260.939,112.558l-80.914-10.525l-34.711-72.064l-34.722,72.064l-80.903,10.525l59.482,53.908
		l-15.349,78.22l71.492-38.41l71.508,38.41l-15.373-78.22L260.939,112.558z"/>
</g>
<g>
	<path fill="#E5E5E5" d="M145.314,29.969l-34.722,72.064l-80.903,10.524l59.482,53.908c0,0,99.728-23.465,118.646-60.817
		l-27.791-3.615L145.314,29.969z"/>
</g>
</svg>
