<?xml version="1.0" encoding="utf-8"?>
<!-- Generator: Adobe Illustrator 16.0.0, SVG Export Plug-In . SVG Version: 6.00 Build 0)  -->
<!DOCTYPE svg PUBLIC "-//W3C//DTD SVG 1.1 Tiny//EN" "http://www.w3.org/Graphics/SVG/1.1/DTD/svg11-tiny.dtd">
<svg version="1.1" baseProfile="tiny" id="Layer_1" xmlns="http://www.w3.org/2000/svg" xmlns:xlink="http://www.w3.org/1999/xlink"
	 x="0px" y="0px" width="290px" height="269.268px" viewBox="0 0 290 269.268" xml:space="preserve">
<g>
	<path fill="#666666" d="M70.845,89.858c49.979,0,99.004,0,148.619,0c0,2.162,0,4.015,0,5.868
		c0.001,32.845,0.011,65.691-0.003,98.54c-0.008,14.743-6.33,20.949-21.217,21.045c-9.764,0.063-8.542-1.241-8.608,8.476
		c-0.062,8.99,0.077,17.98-0.046,26.969c-0.144,10.669-6.978,18.033-16.537,18.061c-9.571,0.026-16.553-7.325-16.702-17.979
		c-0.162-11.56-0.036-23.125-0.036-35.11c-7.556,0-14.682,0-22.319,0c0,11.646,0.003,23.028,0,34.409
		c-0.001,6.171-1.57,11.645-6.959,15.362c-5.224,3.603-10.78,4.604-16.609,1.655c-5.82-2.942-9.412-7.532-9.493-14.299
		c-0.129-10.89-0.314-21.783-0.144-32.668c0.061-3.922-1.235-5.304-5.068-4.916c-17.195,1.752-25.57-5.836-25.092-25.12
		c0.778-31.443,0.213-62.921,0.215-94.384C70.845,93.91,70.845,92.052,70.845,89.858z"/>
	<path fill="#666666" d="M108.434,24.029c-3.846-7.139-7.385-13.473-10.632-19.955c-0.612-1.224-0.055-3.032-0.036-4.571
		c1.304,0.786,3.157,1.254,3.828,2.408c3.722,6.409,7.157,12.984,10.882,19.855c21.762-8.978,43.428-8.911,65.346,0.005
		c3.54-6.53,6.885-12.945,10.521-19.192c0.792-1.363,2.617-2.127,3.966-3.167c-0.025,1.809,0.542,3.911-0.181,5.379
		c-3.111,6.329-6.604,12.469-10.191,19.112c15.014,8.193,26.718,19.514,32.962,35.365c2.9,7.366,4.018,15.433,6.116,23.876
		c-51.205,0-100.741,0-150.669,0c-0.097-12.937,3.709-24.357,10.576-34.788C87.789,37.925,96.956,29.909,108.434,24.029z"/>
	<path fill="#666666" d="M259.122,137.676c0,11.76,0.244,23.525-0.078,35.279c-0.251,9.192-6.575,15.655-15.008,16.239
		c-9.127,0.631-16.514-5.474-17.621-14.581c-0.124-1.027-0.23-2.069-0.23-3.103c-0.013-22.657-0.198-45.317,0.063-67.972
		c0.152-13.276,12.204-20.764,23.871-15.186c6.035,2.885,8.99,7.897,9.017,14.56c0.047,11.587,0.012,23.173,0.012,34.762
		C259.139,137.676,259.131,137.676,259.122,137.676z"/>
	<path fill="#666666" d="M31.186,138.053c0-11.924-0.208-23.851,0.073-35.768c0.187-7.904,5.867-13.998,13.548-15.492
		c7.072-1.375,14.79,2.628,17.754,9.591c0.987,2.313,1.485,5.011,1.497,7.536c0.11,22.637,0.168,45.275,0.007,67.911
		c-0.058,8.483-4.509,14.611-11.375,16.788c-6.547,2.076-14.304,0.067-17.951-5.833c-2.135-3.455-3.301-7.979-3.479-12.084
		c-0.467-10.867-0.158-21.766-0.158-32.651C31.129,138.053,31.157,138.053,31.186,138.053z"/>
</g>
<g>
	<path fill="#777777" d="M219.459,89.859c-49.614,0-98.639,0-148.62,0c0,2.194,0,4.052,0,5.909
		c-0.001,22.713,0.288,45.435,0.159,68.146c1.279,0.015,2.56,0.028,3.847,0.028c60.076,0,113.078-18.246,144.612-46.046
		c0-7.39,0.001-14.78,0.001-22.169C219.459,93.873,219.459,92.019,219.459,89.859z"/>
	<path fill="#777777" d="M181.407,23.904c3.588-6.643,7.079-12.784,10.191-19.112c0.723-1.468,0.155-3.57,0.181-5.379
		c-1.349,1.04-3.174,1.803-3.965,3.167c-3.636,6.247-6.98,12.662-10.523,19.192c-21.918-8.916-43.584-8.983-65.346-0.005
		c-3.725-6.872-7.159-13.446-10.88-19.855c-0.671-1.153-2.525-1.623-3.83-2.408c-0.019,1.539-0.576,3.348,0.036,4.571
		c3.247,6.482,6.788,12.816,10.633,19.955c-11.478,5.88-20.645,13.896-27.511,24.327c-6.868,10.431-10.674,21.851-10.577,34.788
		c49.929,0,99.465,0,150.669,0c-2.098-8.443-3.215-16.511-6.115-23.876C208.125,43.418,196.421,32.096,181.407,23.904z"/>
	<path fill="#777777" d="M64.052,103.921c-0.012-2.525-0.511-5.223-1.497-7.535c-2.965-6.964-10.682-10.966-17.753-9.592
		c-7.683,1.495-13.362,7.588-13.549,15.492c-0.281,11.916-0.073,23.843-0.073,35.767c-0.028,0-0.056,0-0.084,0
		c0,7.518-0.143,15.039-0.08,22.554c10.667,1.659,21.731,2.717,33.085,3.132C64.195,143.8,64.149,123.86,64.052,103.921z"/>
</g>
<circle fill="#FFFFFF" cx="145.105" cy="50.281" r="20.231"/>
</svg>
