<?xml version="1.0" encoding="utf-8"?>
<!-- Generator: Adobe Illustrator 16.0.0, SVG Export Plug-In . SVG Version: 6.00 Build 0)  -->
<!DOCTYPE svg PUBLIC "-//W3C//DTD SVG 1.1//EN" "http://www.w3.org/Graphics/SVG/1.1/DTD/svg11.dtd">
<svg version="1.1" id="Layer_1" xmlns="http://www.w3.org/2000/svg" xmlns:xlink="http://www.w3.org/1999/xlink" x="0px" y="0px"
	 width="290px" height="269.268px" viewBox="0 0 290 269.268" enable-background="new 0 0 290 269.268" xml:space="preserve">
<path fill="#BCBCBC" d="M264.357,270.249h-19.055c0-54.764-44.552-99.315-99.315-99.315c-54.763,0-99.316,44.552-99.316,99.315
	H27.618c0-53.267,35.361-98.426,83.846-113.234c-27.461-13.238-46.452-41.355-46.452-73.827c0-45.162,36.742-81.903,81.903-81.903
	c45.162,0,81.902,36.741,81.902,81.903c0,32.758-19.33,61.084-47.185,74.174C229.537,172.525,264.357,217.399,264.357,270.249z
	 M146.915,20.339c-34.655,0-62.85,28.195-62.85,62.849s28.195,62.849,62.85,62.849c34.655,0,62.849-28.195,62.849-62.849
	S181.57,20.339,146.915,20.339z"/>
</svg>
