<?xml version="1.0" encoding="utf-8"?>
<!-- Generator: Adobe Illustrator 16.0.0, SVG Export Plug-In . SVG Version: 6.00 Build 0)  -->
<!DOCTYPE svg PUBLIC "-//W3C//DTD SVG 1.1 Tiny//EN" "http://www.w3.org/Graphics/SVG/1.1/DTD/svg11-tiny.dtd">
<svg version="1.1" baseProfile="tiny" id="Layer_1" xmlns="http://www.w3.org/2000/svg" xmlns:xlink="http://www.w3.org/1999/xlink"
	 x="0px" y="0px" width="290px" height="269.268px" viewBox="0 0 290 269.268" xml:space="preserve">
<path fill="#9E9E9E" d="M267.146,44.326c-46.571,0-91.725-12.895-121.894-41.331C115.092,31.431,69.942,44.326,23.377,44.326
	c0,74.032-6.335,180.088,121.88,223.155C273.479,224.413,267.146,118.358,267.146,44.326z"/>
<path fill="#B5B5B5" d="M253.006,56.024c-41.167,0-81.076-11.401-107.743-36.529C118.595,44.626,78.684,56.024,37.522,56.024
	c0,65.438-5.6,159.194,107.741,197.253C258.603,215.21,253.006,121.465,253.006,56.024z"/>
<path fill="#E5E5E5" d="M37.134,56.024c0,0,66.702,2.709,107.736-36.529c0,0,39.483,38.063,107.747,36.529
	c0,0,0.185,29.09,0.046,31.459c0,0-83.171,85.801-206.083,71.576C46.578,159.059,34.684,127.082,37.134,56.024z"/>
<path fill="#CECECE" d="M198.125,97.727c-20.393,0-40.162-5.645-53.372-18.096c-13.211,12.449-32.978,18.096-53.366,18.096
	c0,32.415-2.773,78.857,53.366,97.709C200.896,176.58,198.125,130.143,198.125,97.727z"/>
<path fill="#FFFFFF" d="M198.636,97.727c-20.394,0-40.163-5.645-53.372-18.096c-13.215,12.449-32.978,18.096-53.371,18.096
	c0,18.551-0.898,41.694,8.844,61.633c38.693-4.021,71.683-16.956,97.078-30.781C198.866,117.788,198.636,107.164,198.636,97.727z"/>
</svg>
