<?xml version="1.0" encoding="utf-8"?>
<!-- Generator: Adobe Illustrator 16.0.0, SVG Export Plug-In . SVG Version: 6.00 Build 0)  -->
<!DOCTYPE svg PUBLIC "-//W3C//DTD SVG 1.1 Tiny//EN" "http://www.w3.org/Graphics/SVG/1.1/DTD/svg11-tiny.dtd">
<svg version="1.1" baseProfile="tiny" id="Layer_1" xmlns="http://www.w3.org/2000/svg" xmlns:xlink="http://www.w3.org/1999/xlink"
	 x="0px" y="0px" width="290px" height="269.268px" viewBox="0 0 290 269.268" xml:space="preserve">
<path fill="#FFCC00" d="M289.646,65.944l-36.729,180.704H36.86L0.129,65.944c0,0,57.355,35.518,74.834,38.644h10.215
	c22.589-5.11,45.053-55.12,51.929-102.855h15.564c6.875,47.735,29.338,97.745,51.925,102.855h10.216
	C232.29,101.464,289.646,65.944,289.646,65.944z"/>
<path fill="#F7E07C" d="M204.532,104.588c-22.581-5.11-45.048-55.12-51.924-102.855h-15.564
	c-6.876,47.735-29.338,97.745-51.929,102.855H74.901C57.422,101.462,0.067,65.944,0.067,65.944l27.116,133.395
	c14.506,3.029,29.722,4.647,45.408,4.647c86.488,0,158.735-49.03,176.216-114.442c-13.588,7.306-27.041,13.79-34.061,15.043H204.532
	L204.532,104.588z"/>
<ellipse fill="#BC2704" cx="217.266" cy="189.742" rx="12.4" ry="14.244"/>
<ellipse fill="#BC2704" cx="74.573" cy="189.742" rx="12.399" ry="14.244"/>
<ellipse fill="#BC2704" cx="144.888" cy="189.742" rx="21.791" ry="25.031"/>
<path fill="#ED9F03" d="M29.507,237.061v31.824H260.27v-31.824H29.507L29.507,237.061z"/>
</svg>
