<?xml version="1.0" encoding="utf-8"?>
<!-- Generator: Adobe Illustrator 16.0.0, SVG Export Plug-In . SVG Version: 6.00 Build 0)  -->
<!DOCTYPE svg PUBLIC "-//W3C//DTD SVG 1.1 Tiny//EN" "http://www.w3.org/Graphics/SVG/1.1/DTD/svg11-tiny.dtd">
<svg version="1.1" baseProfile="tiny" id="Layer_1" xmlns="http://www.w3.org/2000/svg" xmlns:xlink="http://www.w3.org/1999/xlink"
	 x="0px" y="0px" width="290px" height="269.268px" viewBox="0 0 290 269.268" xml:space="preserve">
<path fill="#03ADD8" d="M263.549,0v203.259c0,4.062-2.609,7.831-6.908,9.983l-90.372,50.022c-12.213,6.768-28.381,6.768-40.595,0
	l-90.374-50.021c-4.3-2.153-6.909-5.923-6.909-9.984V0H263.549z"/>
<path fill="#45CFEF" d="M28.873,0v133.434c24.087,9.384,51.78,14.729,81.249,14.729c68.708,0,127.789-29.036,153.909-70.648V0
	H28.873z"/>
<path fill="#FFFFFF" d="M209.281,77.261c-24.007,0-47.28-6.858-62.831-21.983c-15.551,15.121-38.824,21.983-62.827,21.983
	c0,39.378-3.266,95.792,62.827,118.701C212.546,173.054,209.281,116.641,209.281,77.261z"/>
</svg>
