<?xml version="1.0" encoding="utf-8"?>
<!-- Generator: Adobe Illustrator 16.0.0, SVG Export Plug-In . SVG Version: 6.00 Build 0)  -->
<!DOCTYPE svg PUBLIC "-//W3C//DTD SVG 1.1 Tiny//EN" "http://www.w3.org/Graphics/SVG/1.1/DTD/svg11-tiny.dtd">
<svg version="1.1" baseProfile="tiny" id="Layer_1" xmlns="http://www.w3.org/2000/svg" xmlns:xlink="http://www.w3.org/1999/xlink"
	 x="0px" y="0px" width="290px" height="269.268px" viewBox="0 0 290 269.268" xml:space="preserve">
<path fill="#D60505" d="M263.5,0.026v203.22c0,4.062-2.609,7.831-6.907,9.982l-90.355,50.014c-12.211,6.766-28.375,6.766-40.587,0
	l-90.358-50.014c-4.299-2.151-6.906-5.922-6.906-9.982V0.026H263.5z"/>
<path fill="#EF6A6A" d="M27.422,0.026v133.408c24.082,9.383,51.771,14.728,81.233,14.728c68.697,0,127.765-29.032,153.881-70.636
	v-77.5H27.422z"/>
<path fill="#FFFFFF" d="M184.439,108.042h-5.554c-12.279-2.417-24.494-26.086-28.231-48.68h-8.461
	c-3.738,22.593-15.951,46.261-28.23,48.68h-5.555c-9.502-1.479-40.685-18.289-40.685-18.289l19.97,85.525h117.463l19.97-85.525
	C225.124,89.752,193.943,106.565,184.439,108.042z"/>
</svg>
