<?xml version="1.0" encoding="utf-8"?>
<!-- Generator: Adobe Illustrator 16.0.0, SVG Export Plug-In . SVG Version: 6.00 Build 0)  -->
<!DOCTYPE svg PUBLIC "-//W3C//DTD SVG 1.1 Tiny//EN" "http://www.w3.org/Graphics/SVG/1.1/DTD/svg11-tiny.dtd">
<svg version="1.1" baseProfile="tiny" id="Layer_1" xmlns="http://www.w3.org/2000/svg" xmlns:xlink="http://www.w3.org/1999/xlink"
	 x="0px" y="0px" width="290px" height="269.268px" viewBox="0 0 290 269.268" xml:space="preserve">
<path fill="#FFCC00" d="M263.54,0v203.259c0,4.062-2.609,7.831-6.908,9.983l-90.373,50.022c-12.213,6.767-28.381,6.767-40.594,0
	L35.29,213.242c-4.299-2.152-6.908-5.924-6.908-9.983V0H263.54z"/>
<path fill="#F7E07C" d="M28.382,0v133.433c24.087,9.384,51.78,14.73,81.249,14.73c68.709,0,127.789-29.037,153.909-70.648V0H28.382z
	"/>
<path fill="#FFFFFF" d="M221.684,100.351l-52.65-6.849l-22.59-46.895l-22.594,46.896l-52.648,6.849l38.708,35.083l-9.988,50.899
	l46.524-24.992l46.531,24.992l-10.002-50.899L221.684,100.351z"/>
</svg>
