<?xml version="1.0" encoding="utf-8"?>
<!-- Generator: Adobe Illustrator 16.0.0, SVG Export Plug-In . SVG Version: 6.00 Build 0)  -->
<!DOCTYPE svg PUBLIC "-//W3C//DTD SVG 1.1//EN" "http://www.w3.org/Graphics/SVG/1.1/DTD/svg11.dtd">
<svg version="1.1" id="Layer_1" xmlns="http://www.w3.org/2000/svg" xmlns:xlink="http://www.w3.org/1999/xlink" x="0px" y="0px"
	 width="290px" height="269.268px" viewBox="0 0 290 269.268" enable-background="new 0 0 290 269.268" xml:space="preserve">
<g>
	<path fill="#BCBCBC" d="M145.786,268.836c-22.36,0-44.753-0.775-67.073,0.199c-27.083,1.183-40.607-18.873-42.458-37.194
		c-2.721-26.931,0.277-53.592,12.067-78.466c7.213-15.216,19.136-25.061,36.086-28.158c4.382-0.801,7.888-0.141,11.564,3.075
		c28.714,25.13,71.088,25.12,100.389-0.048c3.726-3.199,7.199-3.784,11.57-2.989c16.293,2.958,27.846,12.302,35.28,26.737
		c9.146,17.752,12.349,37.034,13.263,56.731c0.582,12.521,1.383,25.137-4.531,36.939c-7.398,14.765-18.473,23.437-35.748,23.238
		C192.729,268.634,169.257,268.836,145.786,268.836z"/>
</g>
<g>
	<path fill="#D8D8D8" d="M195.418,127.053c-29.3,25.166-71.676,25.177-100.391,0.047c-3.675-3.215-7.183-3.875-11.563-3.074
		c-16.951,3.1-28.873,12.943-36.086,28.158c-4.485,9.463-7.692,19.188-9.801,29.082c10.743,1.672,21.83,2.557,33.171,2.557
		c58.179,0,109.748-23.012,141.736-58.455c-1.771-0.518-3.596-0.956-5.496-1.302C202.617,123.269,199.145,123.855,195.418,127.053z"
		/>
	<path fill="#D8D8D8" d="M144.442,134.563c37.365,0.025,67.043-29.539,66.92-66.667c-0.126-37.141-29.327-66.152-66.698-66.267
		C108.22,1.518,78.638,31.246,78.637,67.982C78.637,104.792,108.036,134.536,144.442,134.563z"/>
</g>
</svg>
