<?xml version="1.0" encoding="iso-8859-1"?>
<!-- Generator: Adobe Illustrator 19.0.0, SVG Export Plug-In . SVG Version: 6.00 Build 0)  -->
<svg version="1.1" id="Capa_1" xmlns="http://www.w3.org/2000/svg" xmlns:xlink="http://www.w3.org/1999/xlink" x="0px" y="0px"
	 viewBox="0 0 512 512" style="enable-background:new 0 0 512 512;" xml:space="preserve">
<path style="fill:#E5ECF2;" d="M317.491,286.655V137.186c0-33.905-27.586-61.491-61.491-61.491s-61.491,27.586-61.491,61.491
	v149.469h-75.695V137.186C118.814,61.418,180.231,0,255.999,0s137.186,61.418,137.186,137.186v149.469"/>
<path style="fill:#CAD7E4;" d="M270.191,0.728C265.526,0.248,260.791,0,255.999,0c-75.768,0-137.186,61.418-137.186,137.186v149.469
	h28.384V137.186C147.198,66.211,201.093,7.829,270.191,0.728z"/>
<path style="fill:#FCDF5D;" d="M409.174,257.476H102.825c-16.836,0-30.484,13.648-30.484,30.484v193.556
	c0,16.836,13.648,30.484,30.484,30.484h306.349c16.836,0,30.484-13.648,30.484-30.484V287.96
	C439.658,271.124,426.009,257.476,409.174,257.476z"/>
<path style="fill:#E0B022;" d="M103.375,481.516V287.96c0-16.836,13.648-30.484,30.484-30.484h-31.034
	c-16.836,0-30.484,13.648-30.484,30.484v193.556c0,16.836,13.648,30.484,30.484,30.484h31.034
	C117.022,512,103.375,498.352,103.375,481.516z"/>
<path style="fill:#3A536E;" d="M308.037,365.626c0-28.739-23.298-52.038-52.037-52.038c-28.739,0-52.038,23.298-52.038,52.038
	c0,20.812,12.222,38.763,29.876,47.086l-24.928,43.176h94.179l-24.928-43.176C295.815,404.388,308.037,386.437,308.037,365.626z"/>
<g>
</g>
<g>
</g>
<g>
</g>
<g>
</g>
<g>
</g>
<g>
</g>
<g>
</g>
<g>
</g>
<g>
</g>
<g>
</g>
<g>
</g>
<g>
</g>
<g>
</g>
<g>
</g>
<g>
</g>
</svg>
