<?xml version="1.0" encoding="utf-8"?>
<!-- Generator: Adobe Illustrator 16.0.0, SVG Export Plug-In . SVG Version: 6.00 Build 0)  -->
<!DOCTYPE svg PUBLIC "-//W3C//DTD SVG 1.1//EN" "http://www.w3.org/Graphics/SVG/1.1/DTD/svg11.dtd">
<svg version="1.1" id="Layer_1" xmlns="http://www.w3.org/2000/svg" xmlns:xlink="http://www.w3.org/1999/xlink" x="0px" y="0px"
	 width="172.125px" height="189.023px" viewBox="0 0 172.125 189.023" enable-background="new 0 0 172.125 189.023"
	 xml:space="preserve">
<g>
	<path fill="#03ADD8" d="M40.53,85.672c0-1.782-0.005-3.094,0.001-4.405c0.062-14.399-0.225-28.811,0.289-43.193
		c0.492-13.777,12.982-24.278,26.766-23.104c1.997,0.17,2.956-0.29,4.006-1.947c9.885-15.599,32.423-15.566,42.479-0.071
		c0.627,0.964,2.188,2.011,3.218,1.921c15.366-1.353,27.521,11.023,27.621,23.869c0.006,0.885,0.194,1.769,0.25,2.225
		c4.559,1.258,9.15,1.797,13.035,3.747c8.268,4.149,13.491,11.038,13.607,20.55c0.244,19.57,0.679,39.173-0.225,58.707
		c-0.494,10.68-3.535,21.244-5.475,31.855c-0.991,5.414-1.91,10.85-3.168,16.203c-2.544,10.822-11.079,18.07-22.223,18.172
		c-24.862,0.221-49.729,0.188-74.591-0.01c-8.804-0.066-15.62-4.6-20.814-11.479c-13.418-17.771-26.799-35.568-40.075-53.445
		c-7.173-9.658-6.895-23.525,0.37-32.307c8.574-10.363,21.252-13.466,32.977-8.073C38.987,85.073,39.411,85.222,40.53,85.672z
		 M80.9,95.377c-3.064,1.031-3.252-0.548-3.248-2.606c0.031-16.536,0.025-33.073,0-49.61c-0.004-1.793-0.063-3.613-0.361-5.375
		c-1.398-8.252-11.305-12.269-18.102-7.437c-4.208,2.992-5.333,7.19-5.322,12.076c0.058,25.087,0.026,50.174,0.026,75.26
		c0,1.248,0,2.496,0,4.637c-1.175-1.363-1.635-1.842-2.03-2.363c-4.597-6.109-9.085-12.305-13.802-18.32
		c-5.189-6.619-13.213-7.8-19.326-3.076c-6.166,4.762-7.097,12.756-2.077,19.484c13.114,17.578,26.307,35.096,39.461,52.643
		c2.943,3.926,6.71,6.186,11.747,6.18c23.851-0.023,47.699,0.018,71.55-0.027c5.871-0.012,9.619-3.27,10.811-9.105
		c0.584-2.861,1.132-5.732,1.646-8.609c2.221-12.383,5.582-24.699,6.354-37.174c1.124-18.156,0.38-36.43,0.415-54.652
		c0.001-0.781-0.151-1.566-0.279-2.344c-0.864-5.229-5.745-9.508-11.022-9.68c-7.109-0.232-12.273,5.068-12.387,12.981
		c-0.119,8.323-0.068,16.649-0.016,24.974c0.016,2.314-0.752,3.126-3.252,2.025c0-1.293,0-2.626,0-3.96
		c0-16.087,0.01-32.174-0.02-48.262c-0.002-1.793-0.062-3.615-0.375-5.374c-1.477-8.243-11.414-12.146-18.187-7.236
		c-4.056,2.94-5.237,7.021-5.22,11.79c0.062,16.762,0.025,33.524,0.022,50.287c-0.001,1.922,0.281,4.156-3.229,2.783
		c0-1.275,0-2.603,0-3.931c-0.002-20.475,0.006-40.948-0.018-61.424c-0.002-1.794-0.056-3.608-0.324-5.379
		c-1.158-7.596-9.539-12.021-16.444-8.668c-5.31,2.577-7.031,7.129-7.015,12.763c0.064,20.813,0.023,41.625,0.021,62.438
		C80.9,92.515,80.9,93.948,80.9,95.377z"/>
	<path fill="#FFFFFF" d="M80.9,95.377c0-1.428,0-2.862,0-4.295c0.002-20.813,0.043-41.625-0.021-62.438
		c-0.018-5.634,1.705-10.186,7.015-12.763c6.905-3.353,15.286,1.072,16.444,8.668c0.27,1.771,0.322,3.584,0.324,5.379
		c0.022,20.476,0.016,40.949,0.018,61.424c0,1.328,0,2.655,0,3.931c3.512,1.373,3.229-0.861,3.23-2.783
		c0.002-16.763,0.037-33.525-0.023-50.287c-0.018-4.77,1.164-8.849,5.22-11.79c6.771-4.909,16.71-1.007,18.187,7.236
		c0.313,1.759,0.373,3.581,0.375,5.374c0.028,16.087,0.02,32.174,0.02,48.262c0,1.334,0,2.667,0,3.96
		c2.5,1.102,3.268,0.289,3.252-2.025c-0.055-8.324-0.104-16.65,0.016-24.974c0.112-7.914,5.276-13.215,12.387-12.981
		c5.277,0.172,10.158,4.449,11.022,9.68c0.128,0.775,0.28,1.563,0.279,2.344c-0.035,18.223,0.709,36.496-0.415,54.652
		c-0.771,12.475-4.133,24.791-6.354,37.174c-0.516,2.877-1.063,5.748-1.646,8.607c-1.191,5.84-4.939,9.098-10.811,9.107
		c-23.851,0.045-47.699,0.004-71.549,0.027c-5.037,0.006-8.804-2.254-11.747-6.18c-13.154-17.547-26.348-35.064-39.461-52.643
		c-5.02-6.73-4.089-14.723,2.077-19.484c6.113-4.724,14.137-3.543,19.326,3.076c4.717,6.016,9.205,12.211,13.802,18.32
		c0.395,0.521,0.855,1,2.03,2.363c0-2.141,0-3.389,0-4.637c0-25.085,0.031-50.172-0.026-75.26
		c-0.011-4.885,1.114-9.084,5.322-12.076c6.797-4.832,16.703-0.816,18.102,7.437c0.299,1.763,0.357,3.582,0.361,5.375
		c0.026,16.537,0.031,33.073,0,49.61C77.648,94.828,77.835,96.408,80.9,95.377z"/>
</g>
</svg>
