<?xml version="1.0" encoding="utf-8"?>
<!-- Generator: Adobe Illustrator 16.0.0, SVG Export Plug-In . SVG Version: 6.00 Build 0)  -->
<!DOCTYPE svg PUBLIC "-//W3C//DTD SVG 1.1 Tiny//EN" "http://www.w3.org/Graphics/SVG/1.1/DTD/svg11-tiny.dtd">
<svg version="1.1" baseProfile="tiny" id="Layer_1" xmlns="http://www.w3.org/2000/svg" xmlns:xlink="http://www.w3.org/1999/xlink"
	 x="0px" y="0px" width="172.124px" height="189.024px" viewBox="24 16 172.124 189.024" xml:space="preserve">
<g>
	<path fill-rule="evenodd" fill="#E58410" d="M64.529,100.347c0-1.782-0.005-3.094,0.001-4.405
		c0.062-14.4-0.225-28.811,0.289-43.194c0.492-13.777,12.982-24.278,26.766-23.104c1.997,0.17,2.956-0.29,4.006-1.947
		c9.885-15.599,32.423-15.567,42.479-0.072c0.627,0.964,2.188,2.011,3.218,1.921c15.366-1.352,27.521,11.024,27.62,23.869
		c0.007,0.885,0.195,1.769,0.25,2.225c4.56,1.258,9.151,1.797,13.036,3.747c8.267,4.149,13.491,11.038,13.608,20.55
		c0.244,19.57,0.678,39.174-0.226,58.707c-0.494,10.68-3.534,21.244-5.474,31.854c-0.991,5.414-1.91,10.85-3.168,16.203
		c-2.544,10.824-11.079,18.072-22.222,18.172c-24.863,0.221-49.729,0.189-74.592-0.008c-8.804-0.068-15.62-4.6-20.814-11.479
		c-13.418-17.771-26.799-35.568-40.075-53.445c-7.173-9.658-6.895-23.527,0.37-32.308c8.574-10.363,21.252-13.466,32.977-8.073
		C62.986,99.746,63.41,99.897,64.529,100.347z M104.899,110.052c-3.065,1.03-3.252-0.549-3.248-2.607
		c0.031-16.537,0.026-33.074,0-49.611c-0.004-1.793-0.063-3.613-0.361-5.375c-1.399-8.252-11.305-12.268-18.102-7.436
		c-4.208,2.992-5.333,7.19-5.322,12.076c0.058,25.087,0.026,50.174,0.026,75.261c0,1.248,0,2.496,0,4.635
		c-1.175-1.363-1.635-1.84-2.03-2.363c-4.597-6.109-9.085-12.305-13.802-18.32c-5.189-6.618-13.213-7.8-19.326-3.076
		c-6.166,4.762-7.097,12.756-2.077,19.484c13.114,17.578,26.307,35.096,39.461,52.643c2.943,3.926,6.71,6.186,11.747,6.18
		c23.85-0.023,47.699,0.018,71.549-0.027c5.871-0.012,9.619-3.27,10.811-9.107c0.584-2.861,1.132-5.732,1.647-8.609
		c2.22-12.383,5.581-24.699,6.353-37.174c1.124-18.156,0.38-36.429,0.415-54.651c0.001-0.781-0.151-1.567-0.279-2.344
		c-0.865-5.229-5.745-9.508-11.023-9.68c-7.109-0.232-12.273,5.069-12.387,12.982c-0.119,8.323-0.068,16.649-0.015,24.974
		c0.015,2.313-0.752,3.126-3.252,2.026c0-1.294,0-2.627,0-3.961c0-16.087,0.01-32.174-0.019-48.262
		c-0.003-1.793-0.062-3.615-0.376-5.374c-1.476-8.243-11.414-12.145-18.186-7.236c-4.056,2.94-5.237,7.02-5.219,11.79
		c0.061,16.762,0.024,33.524,0.022,50.287c-0.001,1.922,0.281,4.156-3.23,2.784c0-1.276,0-2.603,0-3.931
		c-0.001-20.475,0.006-40.949-0.017-61.424c-0.002-1.794-0.056-3.609-0.325-5.379c-1.158-7.596-9.538-12.021-16.444-8.668
		c-5.31,2.577-7.031,7.129-7.014,12.763c0.064,20.813,0.023,41.625,0.021,62.437C104.899,107.189,104.899,108.623,104.899,110.052z"
		/>
	<path fill-rule="evenodd" fill="#FFFFFF" d="M104.899,110.052c0-1.429,0-2.863,0-4.296c0.002-20.813,0.043-41.625-0.021-62.437
		c-0.018-5.634,1.704-10.186,7.014-12.763c6.906-3.353,15.286,1.072,16.444,8.668c0.27,1.77,0.323,3.584,0.325,5.379
		c0.022,20.475,0.016,40.949,0.017,61.424c0,1.328,0,2.655,0,3.931c3.512,1.372,3.229-0.862,3.23-2.784
		c0.002-16.763,0.038-33.525-0.022-50.287c-0.019-4.77,1.163-8.849,5.219-11.79c6.771-4.909,16.71-1.007,18.186,7.236
		c0.314,1.759,0.373,3.581,0.376,5.374c0.028,16.087,0.019,32.174,0.019,48.262c0,1.334,0,2.667,0,3.961
		c2.5,1.101,3.267,0.287,3.252-2.026c-0.054-8.325-0.104-16.651,0.015-24.974c0.113-7.914,5.277-13.215,12.387-12.982
		c5.278,0.172,10.158,4.45,11.023,9.68c0.128,0.776,0.28,1.563,0.279,2.344c-0.035,18.223,0.709,36.495-0.415,54.651
		c-0.771,12.475-4.133,24.791-6.353,37.174c-0.516,2.877-1.063,5.748-1.647,8.609c-1.191,5.838-4.939,9.096-10.811,9.107
		c-23.85,0.045-47.699,0.004-71.549,0.027c-5.037,0.006-8.804-2.254-11.747-6.18c-13.154-17.547-26.348-35.064-39.461-52.643
		c-5.02-6.729-4.089-14.723,2.077-19.484c6.113-4.724,14.137-3.542,19.326,3.076c4.717,6.016,9.205,12.211,13.802,18.32
		c0.395,0.523,0.855,1,2.03,2.363c0-2.139,0-3.387,0-4.635c0-25.086,0.031-50.173-0.026-75.261
		c-0.011-4.885,1.114-9.084,5.322-12.076c6.797-4.832,16.703-0.817,18.102,7.436c0.298,1.763,0.357,3.582,0.361,5.375
		c0.026,16.537,0.031,33.074,0,49.611C101.647,109.503,101.834,111.082,104.899,110.052z"/>
</g>
</svg>
