<?xml version="1.0" encoding="utf-8"?>
<!-- Generator: Adobe Illustrator 16.0.0, SVG Export Plug-In . SVG Version: 6.00 Build 0)  -->
<!DOCTYPE svg PUBLIC "-//W3C//DTD SVG 1.1//EN" "http://www.w3.org/Graphics/SVG/1.1/DTD/svg11.dtd">
<svg version="1.1"
	 id="svg2" xmlns:cc="http://creativecommons.org/ns#" xmlns:dc="http://purl.org/dc/elements/1.1/" xmlns:inkscape="http://www.inkscape.org/namespaces/inkscape" xmlns:rdf="http://www.w3.org/1999/02/22-rdf-syntax-ns#" xmlns:sodipodi="http://sodipodi.sourceforge.net/DTD/sodipodi-0.dtd" xmlns:svg="http://www.w3.org/2000/svg"
	 xmlns="http://www.w3.org/2000/svg" xmlns:xlink="http://www.w3.org/1999/xlink" x="0px" y="0px" width="500px" height="500px"
	 viewBox="0 0 500 500" enable-background="new 0 0 500 500" xml:space="preserve">
<g id="layer1" transform="translate(0,-552.36218)">
	<path id="rect2990-1" fill="#E2E2E2" d="M250,552.362L250,552.362c138.068,0,250,111.929,250,250l0,0
		c0,138.071-111.932,250-250,250l0,0c-138.071,0-250-111.929-250-250l0,0C0,664.291,111.929,552.362,250,552.362z"/>
</g>
<g>
	<path fill-rule="evenodd" clip-rule="evenodd" fill="#E62117" d="M250.524,241.194c36.763,0,73.525,0.007,110.287-0.004
		c14.113-0.004,26.83,4.126,37.847,12.995c12,9.658,19.241,22.166,21.604,37.414c0.413,2.666,0.641,5.39,0.65,8.087
		c0.058,17.863,0.164,35.729-0.007,53.593c-0.144,14.945-5.493,27.978-15.556,39.005c-8.571,9.391-19.172,15.341-31.607,17.992
		c-3.949,0.842-7.953,1.212-11.996,1.212c-74.166-0.005-148.334,0.014-222.501-0.012c-28.943-0.01-53.429-20.657-58.383-49.243
		c-0.588-3.391-0.837-6.878-0.854-10.32c-0.082-17.043-0.272-34.093,0.026-51.131c0.419-23.87,11.344-41.631,32.292-53.057
		c8.611-4.697,18.016-6.538,27.802-6.535C176.927,241.199,213.724,241.194,250.524,241.194z M273.986,263.95
		c-0.493,0-0.844,0-1.193,0c-5.884,0-11.769,0.022-17.651-0.022c-1.012-0.007-1.324,0.254-1.322,1.301
		c0.032,40.148,0.035,80.298,0.047,120.449c0,0.378,0.038,0.757,0.059,1.134c6.735,0,13.352,0,20.104,0c0-2.808,0-5.551,0-8.184
		c2.855,2.144,5.583,4.386,8.507,6.337c4.296,2.864,9.036,3.922,14.168,2.772c6.444-1.445,10.187-5.283,11.073-11.821
		c0.439-3.236,0.52-6.537,0.53-9.81c0.053-16.616,0.062-33.233,0.007-49.849c-0.011-3.486-0.183-6.988-0.582-10.451
		c-0.487-4.249-2.62-7.554-6.516-9.566c-4.759-2.458-9.662-2.771-14.671-0.878c-4.41,1.668-8.01,4.595-11.547,7.6
		c-0.28,0.239-0.563,0.477-1.013,0.855C273.986,290.413,273.986,277.269,273.986,263.95z M232.276,295.31
		c-6.689,0-13.305,0-20.058,0c0,0.508-0.001,0.96,0,1.412c0,9.877,0.002,19.753,0.004,29.63c0.001,14.083,0.006,28.166-0.008,42.249
		c0,0.426-0.062,1.056-0.333,1.244c-2.381,1.645-4.837,3.195-7.817,3.476c-3.495,0.329-5.383-1.193-5.869-4.68
		c-0.117-0.843-0.165-1.702-0.165-2.555c-0.006-23.141-0.002-46.28,0-69.419c0-0.446,0-0.895,0-1.355c-6.779,0-13.394,0-20.157,0
		c0,0.512,0,0.963,0,1.414c0.003,23.318-0.007,46.637,0.029,69.953c0.004,2.99,0.141,5.988,0.406,8.966
		c0.485,5.428,3.269,9.22,8.397,11.219c4.788,1.864,9.536,1.763,14.231-0.309c3.785-1.669,7.044-4.155,10.255-6.71
		c0.312-0.247,0.634-0.482,1.033-0.785c0.565,2.724,1.089,5.253,1.609,7.755c6.214,0,12.295,0,18.444,0
		C232.276,356.279,232.276,325.811,232.276,295.31z M349.284,344.024c0.531-0.022,0.987-0.061,1.443-0.061
		c10.732-0.003,21.464-0.013,32.196,0.012c0.854,0.002,1.177-0.198,1.173-1.116c-0.03-8.558,0.044-17.116-0.03-25.673
		c-0.09-10.858-5.491-18.315-15.886-21.448c-8.298-2.502-16.7-2.258-24.918,0.534c-6.561,2.226-10.79,6.838-12.786,13.471
		c-1.016,3.374-1.335,6.846-1.336,10.349c-0.005,13.942-0.028,27.883,0.029,41.822c0.011,2.377,0.194,4.787,0.626,7.119
		c1.574,8.485,6.267,14.51,14.563,17.301c8.091,2.721,16.3,2.54,24.385,0c8.121-2.549,13.085-8.143,14.895-16.5
		c1.064-4.918,0.468-9.869,0.378-14.811c-0.001-0.063-0.068-0.121-0.126-0.22c-6.593,0-13.206,0-19.94,0
		c0,0.481,0.006,0.899-0.001,1.316c-0.059,3.421-0.059,6.845-0.197,10.264c-0.163,4.06-2.09,6.381-5.953,6.858
		c-4.794,0.592-7.511-1.216-8.247-5.74c-0.177-1.086-0.252-2.199-0.256-3.3c-0.023-6.382-0.011-12.765-0.011-19.146
		C349.284,344.74,349.284,344.423,349.284,344.024z M174.257,264.018c-0.328-0.027-0.571-0.064-0.813-0.064
		c-20.214-0.004-40.428,0.002-60.641-0.02c-0.814,0-1.032,0.269-1.027,1.048c0.029,4.669,0.037,9.341-0.001,14.01
		c-0.007,0.913,0.31,1.134,1.173,1.128c5.847-0.032,11.694-0.017,17.541-0.017c0.416,0,0.833,0,1.383,0c0,35.65,0,71.171,0,106.719
		c7.212,0,14.288,0,21.504,0c0-35.583,0-71.104,0-106.755c7.038,0,13.935,0,20.883,0
		C174.257,274.672,174.257,269.407,174.257,264.018z"/>
	<path fill-rule="evenodd" clip-rule="evenodd" d="M213.627,87.773c-0.684,2.069-1.346,4.089-2.018,6.105
		c-8.004,24.008-16.011,48.015-24,72.029c-0.197,0.593-0.276,1.252-0.277,1.88c-0.014,17.826-0.012,35.652-0.012,53.479
		c0,0.459,0,0.919,0,1.471c-7.846,0-15.63,0-23.572,0c0-0.421,0-0.871,0-1.32c0-17.897,0.003-35.794-0.014-53.691
		c0-0.661-0.113-1.351-0.321-1.978c-8.521-25.626-17.059-51.247-25.595-76.868c-0.111-0.333-0.212-0.671-0.355-1.125
		c0.407-0.023,0.743-0.059,1.079-0.059c7.808-0.003,15.616,0.001,23.424-0.012c0.66-0.001,1.081,0.056,1.285,0.855
		c2.671,10.484,5.444,20.942,8.062,31.438c1.395,5.594,2.541,11.25,3.799,16.877c0.062,0.278,0.075,0.582,0.205,0.825
		c0.125,0.237,0.429,0.609,0.55,0.573c0.267-0.081,0.615-0.346,0.674-0.595c0.467-1.975,0.918-3.955,1.291-5.948
		c2.733-14.612,7.046-28.829,10.757-43.197c0.137-0.531,0.318-0.84,0.984-0.837c7.808,0.026,15.616,0.018,23.424,0.021
		C213.171,87.695,213.344,87.737,213.627,87.773z"/>
	<path fill-rule="evenodd" clip-rule="evenodd" d="M298.74,122.193c7.428,0,14.688,0,22.061,0c0,0.516,0,0.97,0,1.424
		c0,25.42-0.002,50.84,0.007,76.26c0,0.959,0.021,1.93,0.157,2.876c0.607,4.161,3.059,5.893,7.241,5.155
		c2.954-0.521,5.422-2.092,7.863-3.705c0.193-0.126,0.312-0.44,0.36-0.687c0.063-0.309,0.017-0.64,0.017-0.96
		c0-26.276,0-52.551,0-78.827c0-0.49,0-0.979,0-1.531c7.388,0,14.645,0,21.987,0c0,33.503,0,66.992,0,100.571
		c-0.352,0.021-0.694,0.059-1.038,0.059c-6.025,0.003-12.052-0.014-18.076,0.021c-0.841,0.005-1.163-0.231-1.313-1.073
		c-0.443-2.479-0.99-4.939-1.531-7.582c-1.061,0.823-1.998,1.557-2.94,2.285c-3.05,2.357-6.184,4.583-9.756,6.101
		c-5.676,2.409-11.303,2.259-16.849-0.416c-4.761-2.296-7.227-6.233-7.716-11.38c-0.315-3.329-0.449-6.687-0.454-10.032
		c-0.035-25.776-0.02-51.553-0.02-77.329C298.74,123.01,298.74,122.598,298.74,122.193z"/>
	<path fill-rule="evenodd" clip-rule="evenodd" d="M215.138,172.605c0-7.664-0.008-15.328,0.004-22.991
		c0.005-3.935,0.371-7.829,1.542-11.608c2.331-7.516,7.23-12.645,14.7-15.022c9.244-2.943,18.622-2.975,27.858,0.011
		c8.964,2.898,13.897,9.438,15.523,18.552c0.436,2.442,0.648,4.956,0.658,7.436c0.056,15.969,0.044,31.938,0.013,47.907
		c-0.009,4.415-0.699,8.732-2.44,12.825c-2.776,6.524-7.721,10.704-14.419,12.69c-8.891,2.636-17.88,2.681-26.746-0.08
		c-9.381-2.922-14.5-9.648-16.059-19.177c-0.417-2.555-0.581-5.174-0.607-7.766C215.088,187.79,215.138,180.197,215.138,172.605z
		 M253.396,172.601c0-8.659-0.002-17.319,0.001-25.979c0.002-2.093-0.271-4.129-1.341-5.972c-1.602-2.759-4.911-4.009-8.585-3.35
		c-3.015,0.542-4.957,2.267-5.706,5.207c-0.339,1.332-0.532,2.739-0.535,4.113c-0.034,17.284-0.044,34.568,0.013,51.852
		c0.005,1.607,0.297,3.283,0.815,4.805c1.048,3.079,3.683,4.707,7.143,4.73c3.568,0.024,6.221-1.527,7.311-4.633
		c0.555-1.578,0.831-3.329,0.848-5.005C253.44,189.78,253.397,181.19,253.396,172.601z"/>
	<path fill-rule="evenodd" clip-rule="evenodd" fill="#FFFFFF" d="M273.986,263.95c0,13.319,0,26.463,0,39.867
		c0.45-0.379,0.732-0.616,1.013-0.855c3.537-3.005,7.137-5.932,11.547-7.6c5.009-1.893,9.912-1.58,14.671,0.878
		c3.896,2.013,6.028,5.317,6.516,9.566c0.399,3.463,0.571,6.965,0.582,10.451c0.055,16.615,0.046,33.232-0.007,49.849
		c-0.011,3.272-0.091,6.573-0.53,9.81c-0.887,6.538-4.629,10.376-11.073,11.821c-5.132,1.149-9.872,0.092-14.168-2.772
		c-2.924-1.951-5.651-4.193-8.507-6.337c0,2.633,0,5.376,0,8.184c-6.753,0-13.369,0-20.104,0c-0.021-0.377-0.059-0.756-0.059-1.134
		c-0.012-40.151-0.015-80.301-0.047-120.449c-0.002-1.047,0.311-1.308,1.322-1.301c5.883,0.045,11.768,0.022,17.651,0.022
		C273.142,263.95,273.492,263.95,273.986,263.95z M273.994,341.141c-0.002,0-0.005,0-0.007,0c0,9.195-0.004,18.39,0.014,27.585
		c0.001,0.387,0.069,0.962,0.319,1.13c2.344,1.561,4.719,3.083,7.606,3.454c3.601,0.463,5.772-1.256,6.125-4.858
		c0.08-0.815,0.148-1.635,0.148-2.452c0.005-16.573,0.004-33.146-0.009-49.718c-0.001-0.96-0.062-1.925-0.186-2.877
		c-0.33-2.56-1.683-4.049-3.98-4.338c-0.804-0.101-1.644-0.063-2.447,0.048c-2.54,0.351-4.644,1.709-6.778,3.001
		c-0.648,0.39-0.822,0.837-0.821,1.547C274,322.823,273.994,331.981,273.994,341.141z"/>
	<path fill-rule="evenodd" clip-rule="evenodd" fill="#FFFFFF" d="M232.276,295.31c0,30.501,0,60.969,0,91.505
		c-6.149,0-12.23,0-18.444,0c-0.52-2.502-1.044-5.031-1.609-7.755c-0.398,0.303-0.721,0.538-1.033,0.785
		c-3.211,2.555-6.47,5.041-10.255,6.71c-4.695,2.071-9.444,2.173-14.231,0.309c-5.128-1.999-7.912-5.791-8.397-11.219
		c-0.265-2.978-0.402-5.976-0.406-8.966c-0.036-23.316-0.025-46.635-0.029-69.953c0-0.451,0-0.902,0-1.414
		c6.763,0,13.378,0,20.157,0c0,0.461,0,0.909,0,1.355c-0.002,23.139-0.006,46.278,0,69.419c0,0.853,0.048,1.712,0.165,2.555
		c0.486,3.486,2.374,5.009,5.869,4.68c2.979-0.28,5.436-1.831,7.817-3.476c0.272-0.188,0.333-0.818,0.333-1.244
		c0.014-14.083,0.01-28.166,0.008-42.249c-0.002-9.877-0.004-19.753-0.004-29.63c-0.001-0.452,0-0.904,0-1.412
		C218.97,295.31,225.587,295.31,232.276,295.31z"/>
	<path fill-rule="evenodd" clip-rule="evenodd" fill="#FFFFFF" d="M349.284,344.024c0,0.398,0,0.716,0,1.031
		c0,6.382-0.013,12.765,0.011,19.146c0.004,1.101,0.079,2.214,0.256,3.3c0.736,4.524,3.453,6.332,8.247,5.74
		c3.863-0.478,5.79-2.799,5.953-6.858c0.139-3.419,0.139-6.843,0.197-10.264c0.007-0.417,0.001-0.835,0.001-1.316
		c6.734,0,13.348,0,19.94,0c0.058,0.099,0.125,0.157,0.126,0.22c0.09,4.941,0.687,9.893-0.378,14.811
		c-1.81,8.357-6.773,13.951-14.895,16.5c-8.085,2.54-16.294,2.721-24.385,0c-8.296-2.791-12.988-8.815-14.563-17.301
		c-0.432-2.332-0.615-4.742-0.626-7.119c-0.058-13.939-0.034-27.88-0.029-41.822c0.001-3.503,0.32-6.975,1.336-10.349
		c1.996-6.633,6.226-11.245,12.786-13.471c8.218-2.792,16.62-3.036,24.918-0.534c10.395,3.133,15.796,10.59,15.886,21.448
		c0.074,8.557,0,17.115,0.03,25.673c0.004,0.918-0.318,1.118-1.173,1.116c-10.732-0.024-21.464-0.015-32.196-0.012
		C350.272,343.964,349.816,344.002,349.284,344.024z M363.807,330.926c0.056-0.118,0.111-0.182,0.111-0.242
		c0.004-5.196,0.062-10.395-0.022-15.591c-0.039-2.458-1.141-4.478-3.538-5.354c-1.334-0.488-2.839-0.687-4.267-0.689
		c-4.328-0.011-6.793,2.549-6.801,6.87c-0.007,4.628-0.002,9.258-0.002,13.885c0,0.375,0,0.75,0,1.122
		C354.245,330.926,359.038,330.926,363.807,330.926z"/>
	<path fill-rule="evenodd" clip-rule="evenodd" fill="#FFFFFF" d="M174.257,264.018c0,5.389,0,10.653,0,16.049
		c-6.948,0-13.845,0-20.883,0c0,35.65,0,71.172,0,106.755c-7.217,0-14.292,0-21.504,0c0-35.548,0-71.068,0-106.719
		c-0.55,0-0.967,0-1.383,0c-5.847,0-11.694-0.016-17.541,0.017c-0.863,0.006-1.18-0.215-1.173-1.128
		c0.039-4.669,0.031-9.341,0.001-14.01c-0.004-0.779,0.213-1.048,1.027-1.048c20.213,0.021,40.427,0.016,60.641,0.02
		C173.685,263.954,173.928,263.991,174.257,264.018z"/>
	<path fill-rule="evenodd" clip-rule="evenodd" fill="#E62117" d="M273.994,341.141c0-9.16,0.006-18.318-0.016-27.479
		c-0.001-0.71,0.173-1.157,0.821-1.547c2.135-1.292,4.238-2.65,6.778-3.001c0.804-0.11,1.644-0.148,2.447-0.048
		c2.298,0.289,3.65,1.778,3.98,4.338c0.124,0.952,0.185,1.917,0.186,2.877c0.013,16.572,0.014,33.145,0.009,49.718
		c0,0.817-0.068,1.637-0.148,2.452c-0.353,3.603-2.524,5.321-6.125,4.858c-2.888-0.371-5.263-1.894-7.606-3.454
		c-0.25-0.168-0.318-0.743-0.319-1.13c-0.018-9.195-0.014-18.39-0.014-27.585C273.99,341.141,273.992,341.141,273.994,341.141z"/>
	<path fill-rule="evenodd" clip-rule="evenodd" fill="#E62117" d="M363.807,330.926c-4.769,0-9.562,0-14.519,0
		c0-0.372,0-0.747,0-1.122c0-4.627-0.005-9.257,0.002-13.885c0.008-4.321,2.473-6.881,6.801-6.87
		c1.428,0.003,2.933,0.201,4.267,0.689c2.397,0.877,3.499,2.896,3.538,5.354c0.084,5.196,0.026,10.395,0.022,15.591
		C363.918,330.744,363.863,330.807,363.807,330.926z"/>
</g>
</svg>
