<?xml version="1.0" encoding="utf-8"?>
<!-- Generator: Adobe Illustrator 16.0.0, SVG Export Plug-In . SVG Version: 6.00 Build 0)  -->
<!DOCTYPE svg PUBLIC "-//W3C//DTD SVG 1.1//EN" "http://www.w3.org/Graphics/SVG/1.1/DTD/svg11.dtd">
<svg version="1.1"
	 id="svg2" xmlns:cc="http://creativecommons.org/ns#" xmlns:dc="http://purl.org/dc/elements/1.1/" xmlns:inkscape="http://www.inkscape.org/namespaces/inkscape" xmlns:rdf="http://www.w3.org/1999/02/22-rdf-syntax-ns#" xmlns:sodipodi="http://sodipodi.sourceforge.net/DTD/sodipodi-0.dtd" xmlns:svg="http://www.w3.org/2000/svg"
	 xmlns="http://www.w3.org/2000/svg" xmlns:xlink="http://www.w3.org/1999/xlink" x="0px" y="0px" width="500px" height="500px"
	 viewBox="0 0 500 500" enable-background="new 0 0 500 500" xml:space="preserve">
<rect x="0" y="0" fill="#DC4E41" width="500" height="500"/>
<path fill-rule="evenodd" clip-rule="evenodd" fill="#FFFFFF" d="M266.228,174.883c-0.43,0.536-0.81,1.095-1.272,1.575
	c-7.252,7.504-14.542,14.972-21.749,22.52c-1.203,1.26-2.108,1.172-3.49,0.353c-9.344-5.542-19.127-9.986-29.938-11.866
	c-16.462-2.864-31.278,1.354-44.098,11.523c-17.306,13.729-25.724,32.14-23.551,54.148c2.463,24.944,17.219,43.895,42.036,52.057
	c18.164,5.975,35.553,3.665,51.467-6.9c10.838-7.194,16.973-17.994,20.989-30.564c-1.12-0.08-1.975-0.186-2.829-0.195
	c-16.38-0.184-32.759-0.35-49.138-0.536c-3.305-0.037-3.327-0.068-3.34-3.261c-0.034-9.144,0.004-18.287-0.109-27.429
	c-0.026-2.113,0.488-2.896,2.78-2.89c29.182,0.096,58.364,0.111,87.546,0.066c2.059-0.003,2.896,0.61,2.864,2.653
	c-0.118,7.683,0.205,15.396-0.352,23.044c-0.827,11.344-3.281,22.42-7.927,32.865c-11.538,25.943-31.352,42.248-58.73,49.122
	c-26.545,6.665-52.13,3.691-75.638-10.6c-25.761-15.659-41.412-38.797-46.015-68.628c-7.356-47.681,19.953-86.623,56.614-103.413
	c14.169-6.489,29.137-8.415,44.523-7.859c22.333,0.807,41.523,9.582,58.67,23.425C265.771,174.28,265.939,174.546,266.228,174.883z"
	/>
<path fill-rule="evenodd" clip-rule="evenodd" fill="#FFFFFF" d="M381.949,261.595c0,1.138,0.004,1.956,0,2.773
	c-0.039,7.467-0.123,14.936-0.088,22.402c0.01,1.917-0.52,2.709-2.591,2.682c-7.694-0.104-15.393-0.095-23.088-0.004
	c-1.94,0.022-2.427-0.664-2.425-2.516c0.011-7.543-0.188-15.086-0.18-22.629c0.002-2.009-0.481-2.764-2.678-2.725
	c-7.541,0.134-15.088-0.018-22.631,0.052c-1.791,0.016-2.387-0.527-2.366-2.348c0.084-7.771,0.085-15.545,0-23.317
	c-0.021-1.874,0.55-2.526,2.456-2.509c7.619,0.067,15.241-0.061,22.86,0.03c1.843,0.022,2.346-0.587,2.351-2.329
	c0.023-7.695,0.202-15.39,0.2-23.085c0-1.775,0.518-2.419,2.319-2.404c7.771,0.065,15.545,0.077,23.316-0.006
	c1.966-0.021,2.455,0.79,2.449,2.581c-0.022,7.467,0.055,14.936,0.093,22.403c0.005,0.823,0.001,1.646,0.001,2.798
	c1.024,0,1.833-0.001,2.641,0c7.468,0.016,14.936,0.076,22.402,0.016c1.814-0.015,2.535,0.443,2.509,2.416
	c-0.105,7.848-0.088,15.698-0.008,23.546c0.017,1.713-0.522,2.22-2.215,2.204C398.978,261.556,390.676,261.595,381.949,261.595z"/>
</svg>
