<?xml version="1.0" encoding="utf-8"?>
<!-- Generator: Adobe Illustrator 16.0.0, SVG Export Plug-In . SVG Version: 6.00 Build 0)  -->
<!DOCTYPE svg PUBLIC "-//W3C//DTD SVG 1.1//EN" "http://www.w3.org/Graphics/SVG/1.1/DTD/svg11.dtd">
<svg version="1.1"
	 id="svg2" xmlns:cc="http://creativecommons.org/ns#" xmlns:dc="http://purl.org/dc/elements/1.1/" xmlns:inkscape="http://www.inkscape.org/namespaces/inkscape" xmlns:rdf="http://www.w3.org/1999/02/22-rdf-syntax-ns#" xmlns:sodipodi="http://sodipodi.sourceforge.net/DTD/sodipodi-0.dtd" xmlns:svg="http://www.w3.org/2000/svg"
	 xmlns="http://www.w3.org/2000/svg" xmlns:xlink="http://www.w3.org/1999/xlink" x="0px" y="0px" width="500px" height="500px"
	 viewBox="0 0 500 500" enable-background="new 0 0 500 500" xml:space="preserve">
<rect x="0" y="0" fill="#3AAAE1" width="500" height="500"/>
<path fill="#FFFFFF" d="M393.068,161.26c-10.527,4.669-21.843,7.824-33.716,9.244c12.119-7.265,21.43-18.769,25.811-32.478
	c-11.343,6.729-23.906,11.613-37.278,14.245c-10.708-11.41-25.965-18.537-42.849-18.537c-32.42,0-58.706,26.283-58.706,58.702
	c0,4.601,0.52,9.082,1.52,13.378c-48.79-2.448-92.043-25.82-120.998-61.336c-5.053,8.67-7.948,18.753-7.948,29.512
	c0,20.367,10.362,38.335,26.115,48.862c-9.624-0.305-18.675-2.946-26.589-7.342c-0.006,0.244-0.006,0.49-0.006,0.738
	c0,28.441,20.235,52.167,47.089,57.561c-4.925,1.343-10.111,2.06-15.465,2.06c-3.782,0-7.459-0.369-11.044-1.054
	c7.471,23.321,29.15,40.296,54.839,40.768c-20.091,15.747-45.403,25.13-72.907,25.13c-4.739,0-9.411-0.278-14.003-0.821
	c25.98,16.656,56.836,26.378,89.987,26.378c107.979,0,167.025-89.452,167.025-167.028c0-2.545-0.058-5.076-0.17-7.596
	C375.245,183.371,385.198,173.032,393.068,161.26L393.068,161.26z"/>
</svg>
