<?xml version="1.0" encoding="utf-8"?>
<!-- Generator: Adobe Illustrator 16.0.0, SVG Export Plug-In . SVG Version: 6.00 Build 0)  -->
<!DOCTYPE svg PUBLIC "-//W3C//DTD SVG 1.1//EN" "http://www.w3.org/Graphics/SVG/1.1/DTD/svg11.dtd">
<svg version="1.1"
	 id="svg2" xmlns:cc="http://creativecommons.org/ns#" xmlns:svg="http://www.w3.org/2000/svg" xmlns:inkscape="http://www.inkscape.org/namespaces/inkscape" xmlns:rdf="http://www.w3.org/1999/02/22-rdf-syntax-ns#" xmlns:sodipodi="http://sodipodi.sourceforge.net/DTD/sodipodi-0.dtd" xmlns:dc="http://purl.org/dc/elements/1.1/"
	 xmlns="http://www.w3.org/2000/svg" xmlns:xlink="http://www.w3.org/1999/xlink" x="0px" y="0px" width="500px" height="500px"
	 viewBox="0 0 500 500" enable-background="new 0 0 500 500" xml:space="preserve">
<g id="layer1" transform="translate(0,-552.36218)">
	<path id="rect2990-1" fill="#2D2D2D" d="M250,552.362L250,552.362c138.068,0,250,111.929,250,250l0,0
		c0,138.071-111.932,250-250,250l0,0c-138.071,0-250-111.929-250-250l0,0C0,664.291,111.929,552.362,250,552.362z"/>
	<g id="layer1-9" transform="translate(-549.00515,80.294372)">
	</g>
	<g id="layer1-6" transform="translate(-575.71429,39.999999)">
	</g>
	<g id="layer1-1" transform="translate(-162.09821,1.8080339)">
		<g id="形状_1_3_" transform="matrix(1.21711,0,0,1.21711,112.82456,368.85377)">
			<g id="形状_1">
				<g id="g2991">
				</g>
			</g>
		</g>
		<g id="形状_1_2_" transform="matrix(1.21711,0,0,1.21711,-175.03531,575.68723)">
			<g id="形状_1_1_">
				<g id="g2997">
				</g>
			</g>
		</g>
	</g>
</g>
<rect x="144.738" y="114.336" fill="#27FF9C" width="29.304" height="270.328"/>
<rect x="144.738" y="114.336" fill="#FEF35B" width="148.717" height="30.036"/>
<rect x="323.86" y="173.31" fill="#9933FF" width="30.401" height="211.354"/>
<rect x="144.738" y="353.529" fill="#20CBFF" width="209.522" height="31.135"/>
<polygon fill="#999237" points="232.651,144.372 293.455,144.372 293.455,114.336 263.054,114.336 "/>
<polygon fill="#5C1E99" points="323.86,235.947 353.895,204.445 353.895,173.31 323.86,173.31 "/>
<polygon fill="#FF6766" points="323.86,173.31 323.86,144.372 293.455,144.372 293.455,114.336 263.054,114.336 263.054,144.372 
	263.054,173.31 263.054,204.445 293.455,204.445 323.86,204.445 354.261,204.445 354.261,173.31 "/>
</svg>
