<?xml version="1.0" encoding="utf-8"?>
<!-- Generator: Adobe Illustrator 16.0.0, SVG Export Plug-In . SVG Version: 6.00 Build 0)  -->
<!DOCTYPE svg PUBLIC "-//W3C//DTD SVG 1.1//EN" "http://www.w3.org/Graphics/SVG/1.1/DTD/svg11.dtd">
<svg version="1.1" id="Layer_1" xmlns="http://www.w3.org/2000/svg" xmlns:xlink="http://www.w3.org/1999/xlink" x="0px" y="0px"
	 width="512px" height="512px" viewBox="0 0 512 512" enable-background="new 0 0 512 512" xml:space="preserve">
<rect x="0" y="0" fill="#DDDDDD" width="511.699" height="512"/>
<path fill="#AFB4C8" d="M105.328,223.251h301.344v152.741H105.328V223.251z"/>
<path fill="#9196AA" d="M255.842,223.251h150.831v152.741H255.842V223.251z"/>
<path fill="#CDD2E1" d="M193.049,313.481l-87.721,62.511h301.344l-87.725-62.511c-18.377-13.102-40.384-20.138-62.947-20.138
	C233.433,293.344,211.427,300.384,193.049,313.481z"/>
<path fill="#BEC3D2" d="M318.948,313.481C300.571,300.38,278.564,293.34,256,293.34c-0.056,0-0.107,0.007-0.159,0.007v82.646
	h150.831L318.948,313.481z"/>
<path fill="#FFFFFF" d="M406.672,223.251L256,334.671l-150.672-111.42H406.672L406.672,223.251z"/>
<path fill="#E9EDF5" d="M406.672,223.251h-150.83v111.304l0.159,0.116L406.672,223.251z"/>
<path fill="#70D1E8" d="M348.151,204.15c0,50.895-41.256,92.146-92.146,92.146c-50.896,0-92.15-41.256-92.15-92.146
	c0-50.896,41.256-92.15,92.15-92.15C306.895,112,348.151,153.256,348.151,204.15z"/>
<path fill="#03ADD8" d="M256,112c-0.056,0-0.107,0.003-0.159,0.003v184.294c0.055,0,0.104,0.003,0.159,0.003
	c50.895,0,92.146-41.256,92.146-92.146C348.151,153.256,306.895,112,256,112z"/>
<path fill="#414952" d="M257.184,219.509h-2.367c-7.829,0-14.175-6.346-14.175-14.175v-61.726c0-7.828,6.346-14.174,14.175-14.174
	h2.367c7.828,0,14.175,6.346,14.175,14.174v61.726C271.359,213.162,265.012,219.509,257.184,219.509z"/>
<path fill="#23272B" d="M257.184,129.434h-1.342v90.071h1.342c7.828,0,14.175-6.346,14.175-14.175v-61.726
	C271.359,135.78,265.012,129.434,257.184,129.434z"/>
<path fill="#414952" d="M257.184,264.547h-2.367c-7.829,0-14.175-6.347-14.175-14.175s6.346-14.175,14.175-14.175h2.367
	c7.828,0,14.175,6.347,14.175,14.175S265.012,264.547,257.184,264.547z"/>
<path fill="#23272B" d="M257.184,236.197h-1.342v28.35h1.342c7.828,0,14.175-6.347,14.175-14.175
	C271.359,242.543,265.012,236.197,257.184,236.197z"/>
</svg>
