<?xml version="1.0" encoding="utf-8"?>
<!-- Generator: Adobe Illustrator 16.0.0, SVG Export Plug-In . SVG Version: 6.00 Build 0)  -->
<!DOCTYPE svg PUBLIC "-//W3C//DTD SVG 1.1//EN" "http://www.w3.org/Graphics/SVG/1.1/DTD/svg11.dtd">
<svg version="1.1" id="Layer_1" xmlns="http://www.w3.org/2000/svg" xmlns:xlink="http://www.w3.org/1999/xlink" x="0px" y="0px"
	 width="512px" height="512px" viewBox="0 0 512 512" enable-background="new 0 0 512 512" xml:space="preserve">
<rect x="0" y="0" fill="#DDDDDD" width="511.701" height="512"/>
<polygon fill="#5D6D7E" points="289.487,293.405 296.509,300.431 304.719,308.598 307.883,311.785 324.266,295.39 305.896,276.993 
	"/>
<path fill="#FF8E31" d="M340.971,295.282l56.533,56.531c4.253,4.24,6.892,10.128,6.875,16.603c0,6.486-2.623,12.367-6.875,16.625
	c-4.241,4.235-10.114,6.85-16.602,6.85c-6.481,0-12.35-2.613-16.602-6.862l-56.53-56.537L340.971,295.282z"/>
<path fill="#FECE59" d="M333.168,303.096L333.168,303.096l4.594-4.604l56.54,56.539c3.567,3.573,5.532,8.324,5.528,13.381
	c0,5.071-1.969,9.832-5.528,13.409c-0.65,0.624-1.483,0.938-2.306,0.938c-0.839,0-1.666-0.313-2.312-0.945
	c-1.259-1.276-1.259-3.32,0-4.586c2.356-2.351,3.646-5.496,3.646-8.824c0.01-3.313-1.287-6.438-3.629-8.774L333.168,303.096z"/>
<g>
	<path fill="#34495E" d="M307.769,328.49l33.202-33.211l-2.478-2.482c-1.495-1.5-3.538-2.41-5.81-2.41
		c-2.286,0-4.335,0.906-5.815,2.399l-21.591,21.603c-1.483,1.473-2.409,3.521-2.409,5.812c0,2.255,0.925,4.329,2.409,5.792
		L307.769,328.49z"/>
	<path fill="#34495E" d="M118.596,212.251c0-58.609,47.523-106.141,106.147-106.141c58.628,0,106.149,47.533,106.149,106.141
		c0,58.629-47.528,106.15-106.149,106.164C166.12,318.401,118.596,270.878,118.596,212.251z"/>
</g>
<path fill="#5D6D7E" d="M224.743,306.914c52.265,0,94.654-42.376,94.654-94.664c0-52.258-42.391-94.646-94.654-94.646
	c-52.272,0.001-94.66,42.387-94.66,94.646C130.084,264.538,172.471,306.914,224.743,306.914z"/>
<path fill="#CEE2F2" d="M224.743,299.338c48.084,0,87.076-38.978,87.076-87.087c0-48.072-38.993-87.074-87.076-87.074
	s-87.082,39.002-87.082,87.074C137.661,260.357,176.65,299.338,224.743,299.338z"/>
<g>
	<path fill="#FFFFFF" d="M227.033,139.472c-1.482-2.2-4.032-3.578-6.838-3.418c-12.02,0.729-23.379,4.114-33.761,10.143
		c-3.654,2.138-4.908,6.849-2.779,10.521c2.13,3.626,6.847,4.917,10.49,2.759c8.28-4.777,17.344-7.491,26.952-8.076
		c4.221-0.22,7.468-3.861,7.207-8.079C228.255,141.86,227.765,140.546,227.033,139.472z"/>
	<path fill="#FFFFFF" d="M177.729,164.719c-0.409-0.613-0.941-1.183-1.525-1.666c-3.296-2.696-8.132-2.173-10.796,1.121
		c-7.845,9.631-13.243,21.186-15.627,33.482c-2.819,14.605-1.345,29.559,4.256,43.26c1.632,3.95,6.124,5.806,10.042,4.189
		c3.93-1.591,5.802-6.067,4.191-10.018c-4.465-10.927-5.624-22.859-3.355-34.517c1.854-9.816,6.167-19.033,12.424-26.719
		C179.515,171.178,179.572,167.423,177.729,164.719z"/>
</g>
</svg>
