<?xml version="1.0" encoding="UTF-8"?>
<svg baseProfile="tiny" version="1.2" viewBox="0 0 400 400" xml:space="preserve" xmlns="http://www.w3.org/2000/svg">
<rect width="400" height="400" fill="#03ADD8"/>
	<path d="m297.61 259.48c0 4.382-1.533 8.104-4.602 11.174l-22.35 22.347c-3.064 3.069-6.79 4.603-11.174 4.603-4.381 0-8.104-1.53-11.174-4.603l-48.306-48.312-48.312 48.312c-3.064 3.067-6.792 4.603-11.174 4.603s-8.104-1.53-11.173-4.603l-22.348-22.348c-3.067-3.066-4.604-6.791-4.604-11.173 0-4.383 1.534-8.106 4.604-11.176l48.312-48.308-48.311-48.311c-3.067-3.066-4.604-6.791-4.604-11.174 0-4.382 1.534-8.105 4.604-11.172l22.348-22.348c3.067-3.067 6.792-4.601 11.173-4.601s8.106 1.534 11.174 4.601l48.311 48.311 48.311-48.311c3.066-3.067 6.791-4.601 11.172-4.601 4.387 0 8.107 1.534 11.178 4.601l22.348 22.348c3.064 3.067 4.602 6.792 4.602 11.174 0 4.381-1.531 8.105-4.602 11.174l-48.313 48.311 48.313 48.311c3.064 3.065 4.597 6.791 4.597 11.171z" fill="#fff"/>
</svg>
