<?xml version="1.0" encoding="utf-8"?>
<!-- Generator: Adobe Illustrator 16.0.0, SVG Export Plug-In . SVG Version: 6.00 Build 0)  -->
<!DOCTYPE svg PUBLIC "-//W3C//DTD SVG 1.1 Tiny//EN" "http://www.w3.org/Graphics/SVG/1.1/DTD/svg11-tiny.dtd">
<svg version="1.1" baseProfile="tiny" id="Layer_1" xmlns="http://www.w3.org/2000/svg" xmlns:xlink="http://www.w3.org/1999/xlink"
	 x="0px" y="0px" width="400px" height="400px" viewBox="0 0 400 400" xml:space="preserve">
<path fill="#BA2C2A" d="M399.975,199.999c0,110.544-89.616,200.163-200.163,200.163S-0.349,310.543-0.349,199.999
	c0-110.546,89.615-200.162,200.161-200.162S399.975,89.453,399.975,199.999z"/>
<path fill="#FFFFFF" d="M151.441,108.944V209.54c0,3.448-2.812,6.262-6.262,6.262h-43.81c-3.45,0-6.262-2.813-6.262-6.262V108.944
	c0-3.448,2.813-6.262,6.262-6.262h43.81C148.629,102.682,151.441,105.496,151.441,108.944z M166.751,126.326
	c0-7.961,5.944-7.961,5.998-7.961l109.272,0.213c3.926,0.025,7.8,1.617,10.268,4.671c1.565,1.937,2.813,4.644,2.894,8.358
	c0.157,7.03-3.104,10.454-5.309,11.966c-0.609,0.426-0.478,1.326,0.212,1.538c3.477,1.063,9.847,4.168,10.165,12.977
	c0.317,8.65-4.962,12.922-8.043,14.673c-0.663,0.372-0.53,1.354,0.212,1.567c8.122,2.228,12.021,5.81,12.234,15.522
	c0.158,8.014-7.112,13.242-10.665,15.311c-0.639,0.371-0.559,1.328,0.131,1.565c3.476,1.246,10.268,5.067,10.744,16.001
	c0.665,14.779-10.93,18.098-14.565,18.098c-1.698,0-50.946-0.213-50.946-0.213c-8.068-0.16-5.519,3.527-5.519,3.527
	s1.591,1.646,9.472,22.051c9.338,24.146-0.665,43.891-0.665,43.891s-3.768,10.799-15.468,11.064h-0.294
	c-6.688,0.053-12.124-5.439-12.206-12.127c-0.13-10.535-0.53-16.184-0.53-19.688c0-2.734-5.783-7.723-7.377-9.42
	c-7.163-7.563-19.953-22.186-25.658-31.313c-9.341-14.938-14.356-32.611-14.356-50.203V126.326L166.751,126.326z"/>
</svg>
