<?xml version="1.0" encoding="utf-8"?>
<!-- Generator: Adobe Illustrator 16.0.0, SVG Export Plug-In . SVG Version: 6.00 Build 0)  -->
<!DOCTYPE svg PUBLIC "-//W3C//DTD SVG 1.1 Tiny//EN" "http://www.w3.org/Graphics/SVG/1.1/DTD/svg11-tiny.dtd">
<svg version="1.1" baseProfile="tiny" id="Layer_1" xmlns="http://www.w3.org/2000/svg" xmlns:xlink="http://www.w3.org/1999/xlink"
	 x="0px" y="0px" width="400px" height="400px" viewBox="0 0 400 400" xml:space="preserve">
<circle fill="#FEDA6B" cx="200" cy="200.838" r="200.161"/>
<path fill="#020202" d="M64.622,234.115h276.335c0,0-19.124,123.462-138.166,123.347C80.783,357.346,64.622,234.115,64.622,234.115z
	"/>
<path fill="#F05266" d="M309.426,304.737c-24.729-19.763-62.258-32.375-104.278-32.375c-44.799,0-84.474,14.343-108.996,36.394
	c20.461,25.929,53.313,48.654,105.674,48.706C255.601,357.513,288.98,332.348,309.426,304.737z"/>
<polyline fill="none" stroke="#000000" stroke-width="11" stroke-linecap="round" stroke-linejoin="round" stroke-miterlimit="10" points="
	92.699,115.047 144.792,146.279 92.699,172.952 "/>
<polyline fill="none" stroke="#000000" stroke-width="11" stroke-linecap="round" stroke-linejoin="round" stroke-miterlimit="10" points="
	307.3,115.047 255.207,146.279 307.3,172.952 "/>
</svg>
