<?xml version="1.0" encoding="utf-8"?>
<!-- Generator: Adobe Illustrator 16.0.0, SVG Export Plug-In . SVG Version: 6.00 Build 0)  -->
<!DOCTYPE svg PUBLIC "-//W3C//DTD SVG 1.1 Tiny//EN" "http://www.w3.org/Graphics/SVG/1.1/DTD/svg11-tiny.dtd">
<svg version="1.1" baseProfile="tiny" id="Layer_1" xmlns="http://www.w3.org/2000/svg" xmlns:xlink="http://www.w3.org/1999/xlink"
	 x="0px" y="0px" width="400px" height="400px" viewBox="0 0 400 400" xml:space="preserve">
<path fill="#6A89C5" d="M399.975,199.999c0,110.544-89.616,200.163-200.163,200.163S-0.349,310.543-0.349,199.999
	c0-110.546,89.615-200.162,200.161-200.162S399.975,89.453,399.975,199.999z"/>
<path fill="#FFFFFF" d="M144.991,286.727h-43.81c-3.45,0-6.262-2.813-6.262-6.262V179.869c0-3.448,2.813-6.262,6.262-6.262h43.81
	c3.45,0,6.262,2.814,6.262,6.262v100.596C151.253,283.913,148.441,286.727,144.991,286.727z M166.563,263.083v-72.069
	c0-17.592,5.016-35.265,14.356-50.204c5.705-9.127,18.495-23.749,25.658-31.312c1.594-1.698,7.377-6.686,7.377-9.42
	c0-3.503,0.4-9.153,0.53-19.688c0.082-6.686,5.519-12.179,12.206-12.126h0.294c11.7,0.265,15.468,11.064,15.468,11.064
	s10.003,19.744,0.665,43.891c-7.881,20.404-9.472,22.05-9.472,22.05s-2.55,3.688,5.519,3.529c0,0,49.248-0.213,50.946-0.213
	c3.636,0,15.23,3.318,14.565,18.098c-0.477,10.933-7.269,14.754-10.744,16c-0.689,0.238-0.77,1.194-0.131,1.566
	c3.553,2.068,10.823,7.296,10.665,15.31c-0.213,9.712-4.112,13.294-12.234,15.522c-0.742,0.213-0.875,1.195-0.212,1.567
	c3.081,1.751,8.36,6.022,8.043,14.673c-0.318,8.809-6.688,11.913-10.165,12.977c-0.689,0.212-0.821,1.112-0.212,1.538
	c2.204,1.512,5.466,4.936,5.309,11.966c-0.081,3.715-1.328,6.422-2.894,8.358c-2.468,3.054-6.342,4.646-10.268,4.671l-109.272,0.213
	C172.507,271.044,166.563,271.044,166.563,263.083L166.563,263.083z"/>
</svg>
