<?xml version="1.0" encoding="utf-8"?>
<!-- Generator: Adobe Illustrator 16.0.0, SVG Export Plug-In . SVG Version: 6.00 Build 0)  -->
<!DOCTYPE svg PUBLIC "-//W3C//DTD SVG 1.1//EN" "http://www.w3.org/Graphics/SVG/1.1/DTD/svg11.dtd">
<svg version="1.1" id="Layer_1" xmlns="http://www.w3.org/2000/svg" xmlns:xlink="http://www.w3.org/1999/xlink" x="0px" y="0px"
	 width="400px" height="400px" viewBox="0 0 400 400" enable-background="new 0 0 400 400" xml:space="preserve">
<rect x="0.834" fill="#FFA500" width="400" height="400"/>
<g>
	<path fill="#FCBC56" d="M0.834,340.201C201.021,332.75,361.991,184.661,371.087,0H0.834V340.201z"/>
</g>
<g>
	<path fill="#FFFFFF" d="M130.939,182.549c0-5.179-0.02-10.468,0.004-15.756c0.058-12.471-0.852-25.078,3.905-37.017
		c9.765-24.506,27.154-40.805,53.32-45.49c27.57-4.938,50.454,4.57,68.058,26.387c10.492,13.002,14.728,28.103,14.522,44.644
		c-0.111,8.975-0.021,17.952-0.021,27.45c2.287,0.114,4.206,0.169,6.118,0.313c7.185,0.541,12.876,5.838,13.593,13.002
		c0.38,3.799,0.276,7.652,0.279,11.48c0.021,25.656,0.026,51.313,0.003,76.972c-0.013,13.446-4.992,18.388-18.444,18.389
		c-47.814,0.005-95.631,0.007-143.445-0.002c-12.712-0.002-17.858-5.123-17.876-17.94c-0.039-27.655-0.019-55.313-0.01-82.969
		c0.005-13.66,4.396-18.313,17.894-19.032C129.326,182.953,129.806,182.786,130.939,182.549z M160.04,182.647
		c27.754,0,54.103,0,79.958,0c0-12.978,1.438-25.78-0.34-38.118c-2.616-18.142-19.303-30.964-37.826-31.552
		c-18.324-0.582-35.716,11.471-39.234,29.646C160.106,155.499,160.795,168.99,160.04,182.647z"/>
</g>
</svg>
