<?xml version="1.0" encoding="utf-8"?>
<!-- Generator: Adobe Illustrator 16.0.0, SVG Export Plug-In . SVG Version: 6.00 Build 0)  -->
<!DOCTYPE svg PUBLIC "-//W3C//DTD SVG 1.1//EN" "http://www.w3.org/Graphics/SVG/1.1/DTD/svg11.dtd">
<svg version="1.1" id="Layer_1" xmlns="http://www.w3.org/2000/svg" xmlns:xlink="http://www.w3.org/1999/xlink" x="0px" y="0px"
	 width="400px" height="400px" viewBox="0 0 400 400" enable-background="new 0 0 400 400" xml:space="preserve">
<rect x="0.834" fill="#004854" width="400" height="400"/>
<g>
	<path fill="#00747A" d="M0,340.201C200.187,332.75,361.156,184.661,370.253,0H0V340.201z"/>
</g>
<g>
	<path fill="#FFFFFF" d="M200.893,315.936c-20.164,0-40.357-0.709-60.482,0.186c-24.439,1.082-36.689-16.723-38.416-33.391
		c-2.533-24.442,0.192-48.658,11.011-71.215c6.576-13.711,17.417-22.496,32.717-25.135c3.501-0.604,6.503-0.318,9.583,2.393
		c26.285,23.143,64.656,23.217,91.307,0.172c3.046-2.633,5.944-3.212,9.521-2.609c15.104,2.548,25.8,11.125,32.62,24.533
		c8.161,16.046,11.038,33.435,11.812,51.198c0.474,10.949,1.174,21.949-3.853,32.359c-6.683,13.834-16.821,21.777-32.82,21.571
		C242.892,315.73,221.891,315.936,200.893,315.936z"/>
	<path fill="#FFFFFF" d="M141.192,135.719c0.126-33.164,26.833-59.857,59.705-59.674c33.699,0.188,60.002,26.465,59.982,59.924
		c-0.021,33.512-26.82,60.065-60.51,59.953C167.532,195.813,141.065,168.887,141.192,135.719z"/>
</g>
</svg>
