<?xml version="1.0" encoding="utf-8"?>
<!-- Generator: Adobe Illustrator 16.0.0, SVG Export Plug-In . SVG Version: 6.00 Build 0)  -->
<!DOCTYPE svg PUBLIC "-//W3C//DTD SVG 1.1//EN" "http://www.w3.org/Graphics/SVG/1.1/DTD/svg11.dtd">
<svg version="1.1" id="Layer_1" xmlns="http://www.w3.org/2000/svg" xmlns:xlink="http://www.w3.org/1999/xlink" x="0px" y="0px"
	 width="400px" height="400px" viewBox="0 0 400 400" enable-background="new 0 0 400 400" xml:space="preserve">
<rect x="0.834" fill="#336699" width="400" height="400"/>
<g>
	<path fill="#478FC9" d="M0.834,340.201C201.021,332.75,361.99,184.661,371.087,0H0.834V340.201z"/>
</g>
<g>
	<path fill="#FFFFFF" d="M78.601,199.018C78.58,132.217,132.004,79.059,199.202,79.021c65.673-0.037,119.442,54.067,119.194,119.934
		c-0.25,66.389-53.462,119.975-119.134,119.969C132.126,318.919,78.624,265.752,78.601,199.018z M160.372,107.804
		c-2.139,0.737-4.274,1.475-6.412,2.211c-17.087,7.683-29.777,20.228-40.207,36.15c5.356,5.167,10.558,10.183,15.758,15.199
		c-0.38,0.394-0.76,0.787-1.14,1.181c-1.078-0.313-2.157-0.626-3.649-1.06c0.277,1.557,0.522,2.511,0.598,3.478
		c0.074,0.938,0.104,1.915-0.064,2.833c-2.259,12.152,1.521,21.807,11.696,28.973c1.285,0.906,2.282,2.397,3.068,3.81
		c3.725,6.688,7.326,13.442,10.974,20.174c0.574-0.288,1.15-0.575,1.729-0.864c-2.729-5.634-5.457-11.268-8.185-16.902
		c1.707-0.065,2.701,0.281,3.185,0.982c2.216,3.219,4.174,6.618,6.439,9.801c2.938,4.129,7.677,7.729,8.76,12.248
		c1.664,6.941,5.287,10.903,11.466,12.994c8.441,2.854,17.241,4.729,24.819,9.776c0.887,0.59,2.258,0.583,2.961,1.293
		c3.783,3.823,7.374,7.839,11.162,11.657c0.82,0.83,2.855,1.832,3.167,1.535c0.983-0.943,1.422-2.463,2.182-3.981
		c-7.643-0.53-9.116-2.797-7.104-9.573c0.168-0.563-0.122-1.271-0.244-1.904c-1.058-5.488-3.642-6.914-12.171-6.027
		c1.115-3.467,2.196-6.502,3.043-9.604c0.31-1.133,0.416-3.301-0.001-3.469c-1.237-0.496-2.936-0.629-4.157-0.15
		c-1.076,0.42-2.145,1.724-2.537,2.867c-0.959,2.784-2.354,5.336-5.547,4.348c-2.746-0.85-6.582-2.413-7.332-4.566
		c-1.458-4.186-1.394-9.003-1.408-13.563c-0.028-7.819,4.547-11.346,12.241-9.989c0.982,0.174,2.24-0.021,3.101-0.513
		c5.655-3.239,13.771-0.229,16.062,5.91c0.69,1.854,1.948,3.496,2.946,5.234c0.581-0.248,1.162-0.496,1.742-0.745
		c-0.242-3.419,0.438-7.271-0.922-10.165c-2.675-5.703-2.891-6.078,2.596-9.006c4.193-2.237,7.744-4.937,5.319-10.707
		c-0.402-0.956,0.114-2.992,0.921-3.637c2.697-2.155,5.709-3.918,8.618-5.805c0.956-0.619,2.794-1.123,2.819-1.735
		c0.177-4.436,4.044-4.84,6.709-6.499c2.182-1.357,4.489-2.511,5.571-3.108c0-3.372,0-5.563,0-8.822
		c-3.097,0.875-6.348,1.794-9.329,2.637c3.707-4.581,12.221-6.436,19.672-4.115c1.457-1.132,2.932-2.205,4.322-3.377
		c1.484-1.249,2.895-2.59,4.334-3.892c-1.759-1.794-3.449-5.015-5.289-5.1c-4.594-0.214-6.279-2.363-7.645-6.266
		c-0.816-2.339-3.045-4.185-4.613-6.217c-2.058,1.141-3.811,2.717-5.75,2.997c-1.566,0.227-4.282-0.632-4.899-1.829
		c-3.229-6.244-10.654-9.51-17.226-7.304c-0.229,3.283-0.449,6.43-0.707,10.128c0.729,1.578,5.705,3.198,1.578,6.05
		c-4.035,2.787-4.505,5.612-2.262,9.309c-3.482,3.238-5.479,1.838-7.129-1.517c-1.072-2.179-1.93-5.338-3.727-6.122
		c-5.049-2.202-10.481-3.614-15.865-4.918c-3.275-0.793-6.463-4.026-5.731-7.243c1.041-4.584,2.531-8.785,8.363-9.645
		c1.979-0.292,4.205-2.101,5.401-3.845c1.91-2.784,3.434-4.809,7.182-2.854c0.826,0.431,3.55-0.822,3.521-1.002
		c-0.387-2.438-1.104-4.823-1.742-7.222c-1.446,0.667-3.112,1.074-4.289,2.063c-1.542,1.3-2.694,3.059-4.425,5.102
		c-1.527-2.348-2.572-3.951-3.636-5.582c-3.459,1.354-5.363-0.219-7.29-2.896c-1.163-1.616-3.352-2.758-5.313-3.418
		c-0.9-0.304-2.363,1.065-3.571,1.676c0.784,0.922,1.438,2.016,2.383,2.723c1.194,0.895,2.625,1.474,3.71,2.058
		c-1.929,2.16-3.414,3.822-4.862,5.444c-1.573-4.7-5.772-1.926-9.058-2.445c-2.05-0.324-5.208-0.676-5.801-1.966
		C166.62,103.748,164.938,103.226,160.372,107.804z M215.037,297.477c22.48-3.977,40.346-13.604,54.61-28.641
		c-3.013-2.506-5.396-4.761-8.057-6.627c-2.803-1.966-6.278-5.457-8.731-4.924c-5.163,1.121-8.296-1.866-12.321-3.211
		c-3.938-1.313-8.212-2.75-11.941,1.16c-2.069,2.168-4.561,3.934-7.35,6.293c0.177,1.561,0.652,4.029,0.683,6.504
		c0.032,2.896,0.573,6.303-0.714,8.578c-2.313,4.092-7.62,6.914-3.821,12.834c0.246,0.381-0.69,1.438-0.922,2.229
		C216.033,293.186,215.707,294.732,215.037,297.477z"/>
</g>
</svg>
