<?xml version="1.0" encoding="utf-8"?>
<!-- Generator: Adobe Illustrator 16.0.0, SVG Export Plug-In . SVG Version: 6.00 Build 0)  -->
<!DOCTYPE svg PUBLIC "-//W3C//DTD SVG 1.1//EN" "http://www.w3.org/Graphics/SVG/1.1/DTD/svg11.dtd">
<svg version="1.1" id="Layer_1" xmlns="http://www.w3.org/2000/svg" xmlns:xlink="http://www.w3.org/1999/xlink" x="0px" y="0px"
	 width="400px" height="400px" viewBox="0 0 400 400" enable-background="new 0 0 400 400" xml:space="preserve">
<rect x="0.834" fill="#03ADD8" width="400" height="400"/>
<g>
	<path fill="#35D4F9" d="M0.834,340.201C201.021,332.75,361.991,184.661,371.087,0H0.834V340.201z"/>
</g>
<g>
	<path fill="#FFFFFF" d="M198.571,91.044c27.381,0,54.762-0.008,82.143,0.004c9.329,0.005,12.645,3.232,12.649,12.463
		c0.025,36.562,0.049,73.123-0.004,109.684c-0.032,23.179-10.221,41.992-25.565,58.49c-17.691,19.02-38.928,33.133-61.991,44.748
		c-4.727,2.382-8.966,2.873-13.897,0.383c-26.522-13.398-50.809-29.724-69.553-53.188c-11.869-14.858-18.799-31.675-18.752-51.049
		c0.088-36.087,0.019-72.173,0.028-108.259c0.003-10.246,3.051-13.276,13.273-13.276C144.124,91.043,171.347,91.044,198.571,91.044z
		 M198.717,119.7c0,56.021,0,111.784,0,168.028c1.387-0.586,2.398-0.912,3.313-1.415c15.743-8.655,30.334-18.9,43.032-31.677
		c13.264-13.342,20.77-28.769,20.206-48.309c-0.779-27.039-0.196-54.117-0.196-81.178c0-1.814,0-3.628,0-5.449
		C242.483,119.7,220.703,119.7,198.717,119.7z"/>
</g>
</svg>
