<?xml version="1.0" encoding="utf-8"?>
<!-- Generator: Adobe Illustrator 16.0.0, SVG Export Plug-In . SVG Version: 6.00 Build 0)  -->
<!DOCTYPE svg PUBLIC "-//W3C//DTD SVG 1.1//EN" "http://www.w3.org/Graphics/SVG/1.1/DTD/svg11.dtd">
<svg version="1.1" id="Layer_1" xmlns="http://www.w3.org/2000/svg" xmlns:xlink="http://www.w3.org/1999/xlink" x="0px" y="0px"
	 width="400px" height="400px" viewBox="0 0 400 400" enable-background="new 0 0 400 400" xml:space="preserve">
<rect x="0.834" fill="#777777" width="400" height="400"/>
<g>
	<path fill="#A5A5A5" d="M0.834,340.201C201.021,332.75,361.991,184.661,371.087,0H0.834V340.201z"/>
</g>
<g>
	<path fill="#FFFFFF" d="M201.849,97.301c24.669-0.001,49.339,0.078,74.008-0.07c4.699-0.028,7.968,1.497,10.793,5.308
		c15.87,21.403,31.929,42.666,47.905,63.99c4.73,6.314,4.516,9.529-0.839,15.24c-40.894,43.624-81.78,87.252-122.672,130.877
		c-0.775,0.826-1.552,1.654-2.358,2.449c-4.629,4.567-9.144,4.696-13.611-0.007c-12.394-13.047-24.675-26.2-36.981-39.327
		c-29.363-31.322-58.713-62.656-88.074-93.979c-5.381-5.741-5.599-8.907-0.861-15.233c16.056-21.442,32.174-42.836,48.159-64.33
		c2.619-3.522,5.711-5,10.1-4.979C152.226,97.368,177.037,97.302,201.849,97.301z M201.864,285.088
		c15.646-34.619,30.939-68.459,46.304-102.449c-31.155,0-61.676,0-92.624,0C170.997,216.82,186.259,250.575,201.864,285.088z
		 M156.617,165.057c30.431,0,60.184,0,89.968,0c-0.048-0.603,0.015-0.923-0.104-1.146c-8.406-15.86-16.783-31.737-25.349-47.51
		c-0.604-1.112-2.598-2.021-3.977-2.064c-6.646-0.213-13.418,0.676-19.935-0.273c-10.354-1.507-15.934,2.303-20.142,11.888
		C171.257,139.218,163.699,151.724,156.617,165.057z M164.282,114.249c-11.522,0-22.406-0.082-33.285,0.116
		c-1.183,0.021-2.608,1.448-3.458,2.572c-11.461,15.145-22.844,30.35-34.231,45.549c-0.55,0.735-0.979,1.56-1.803,2.889
		c15.079,0,29.497,0.071,43.912-0.133c1.166-0.016,2.708-1.694,3.395-2.966c7.809-14.454,15.485-28.977,23.188-43.486
		C162.705,117.463,163.352,116.103,164.282,114.249z M239.928,114.249c0.114,0.751,0.073,1.201,0.25,1.536
		c8.406,15.9,16.785,31.816,25.361,47.624c0.585,1.077,2.67,1.876,4.065,1.891c13.187,0.141,26.374,0.09,39.563,0.065
		c0.882-0.002,1.764-0.248,3.069-0.444c-12.469-16.63-24.608-32.852-36.817-49.022c-0.593-0.784-1.786-1.57-2.708-1.579
		C261.833,114.21,250.954,114.249,239.928,114.249z M227.965,268.504c0.215,0.203,0.43,0.406,0.646,0.607
		c26.862-28.676,53.725-57.354,81.287-86.779c-14.556,0-27.985-0.065-41.414,0.13c-1.016,0.015-2.387,1.699-2.946,2.908
		c-4.529,9.759-8.902,19.591-13.326,29.397C244.129,232.682,236.047,250.594,227.965,268.504z M93.802,182.318
		c27.384,29.229,54.019,57.659,80.654,86.088c0.39-1.326,0.214-2.262-0.166-3.104c-12.021-26.693-24.098-53.363-36.037-80.094
		c-1.067-2.39-2.45-3.014-4.85-2.936c-4.671,0.152-9.351,0.044-14.026,0.044C111.222,182.318,103.065,182.318,93.802,182.318z"/>
</g>
</svg>
